<svg xmlns="http://www.w3.org/2000/svg" width="26" height="26" viewBox="0 0 26 26">
    <g transform="translate(-865 -517)">
        <rect width="26" height="26" fill="#6c6fbf" rx="2" transform="translate(865 517)"/>
        <g>
            <g>
                <path fill="#fff" d="M8.943 16.973h-5.35a2.167 2.167 0 0 1-2.131-1.895 2.98 2.98 0 0 1 .071-1.064c.249-1.273.49-2.554.71-3.827.227-1.153.44-2.307.668-3.453a2.172 2.172 0 0 1 1.883-1.745h.8a.12.12 0 0 0 .121-.075c.249-.494.476-1 .753-1.5A2.774 2.774 0 0 1 8.595 2a2.872 2.872 0 0 1 2.984 1.663L12.2 4.9a.106.106 0 0 0 .114.067h.8a2.175 2.175 0 0 1 1.846 1.745c.242 1.221.476 2.449.71 3.678s.483 2.509.71 3.745a2.291 2.291 0 0 1-1.094 2.539 2.043 2.043 0 0 1-.973.247zm0-1.5h5.314a.7.7 0 0 0 .585-.285.781.781 0 0 0 .126-.666c-.128-.637-.249-1.273-.369-1.917l-1.067-5.511a.72.72 0 0 0-.71-.607H5.007a.72.72 0 0 0-.71.607c-.071.382-.149.749-.22 1.146q-.6 3.108-1.208 6.224a1.025 1.025 0 0 0 0 .487.714.714 0 0 0 .71.524zm1.641-10.484a.363.363 0 0 0 0-.067l-.32-.622a1.466 1.466 0 0 0-2.032-.614 1.658 1.658 0 0 0-.611.674c-.1.21-.206.412-.313.629z" transform="translate(871 523) translate(-1.443 -1.973)"/>
            </g>
        </g>
    </g>
</svg>
