<svg xmlns="http://www.w3.org/2000/svg" width="26" height="26" viewBox="0 0 26 26">
    <g transform="translate(-865 -173)">
        <rect width="26" height="26" fill="#41a2ff" rx="2" transform="translate(865 173)"/>
        <g>
            <path fill="none" d="M0 0H14.356V15H0z" transform="translate(871 179)"/>
            <g>
                <path fill="#fff" d="M13.068 2.486a.763.763 0 0 0-.7-.486h-9.54a.763.763 0 0 0-.7.486L.156 7.473a.815.815 0 0 0 .07.74.749.749 0 0 0 .63.35h.933v5.25H1.3a.657.657 0 0 0 0 1.313h12.6a.657.657 0 0 0 0-1.313h-.769V8.562h1.21a.749.749 0 0 0 .63-.35.815.815 0 0 0 .07-.74zm-7.5 11.327v-3.282H6.83v3.1a.6.6 0 0 0 .038.184zm2.521 0a.861.861 0 0 0 0-.184v-3.1H9.35v3.281zm3.812 0h-1.26v-3.807a.772.772 0 0 0-.756-.788H5.078a.772.772 0 0 0-.756.788v3.806H3.061v-5.25h1.027a.724.724 0 0 0 .447-.151l1.33-1 1.26.971a.732.732 0 0 0 .895 0l1.26-.971 1.33 1a.718.718 0 0 0 .441.151h.769zm-.63-6.562l-1.492-1.13a.732.732 0 0 0-.895 0L7.6 7.092l-1.26-.971a.732.732 0 0 0-.895 0L3.924 7.25H1.605l1.582-3.938h8.822l1.563 3.938z" transform="translate(871 179) translate(0 .938) translate(-.098 -2)"/>
            </g>
        </g>
    </g>
</svg>
