<svg xmlns="http://www.w3.org/2000/svg" width="141.98" height="105.252" viewBox="0 0 141.98 105.252">
    <defs>
        <style>
            .cls-1{opacity:.43}.cls-2{fill:#ede6f5}.cls-3{fill:#552e3b}.cls-4{fill:#b8abd6}.cls-7{fill:#6338a1}.cls-8{fill:#f9c8c7}.cls-9{fill:#452775}.cls-13{fill:#b28560}.cls-15{fill:#f9fafd}.cls-16{fill:#a869c5}.cls-17{fill:#c7cddd}.cls-18{fill:#e08f8d}.cls-19{opacity:.26}.cls-20{fill:#deecfc}.cls-29{fill:none;stroke-miterlimit:10;stroke-width:.15px;stroke:#e8947e}
        </style>
    </defs>
    <g id="Group_2331" transform="translate(-1020.361 -191.471)">
        <g id="Group_2330" transform="translate(1020.361 191.471)">
            <g id="Group_2173" class="cls-1" transform="translate(0 13.245)">
                <path id="Path_3634" d="M1022.222 280.11c-4.932-12.447.272-28.076 11.682-35.082 6.894-4.235 15.222-5.376 22.638-8.611 11.41-4.977 20.048-14.587 30.268-21.7 7.59-5.278 16.228-9.227 25.376-10.566s18.824.058 26.787 4.753c8.453 4.986 14.579 13.484 17.5 22.854s2.765 19.544.453 29.083a30.615 30.615 0 0 1-4.243 10.354 14.8 14.8 0 0 1-8.981 6.314" class="cls-2" transform="translate(-1020.361 -203.672)"/>
            </g>
            <path id="Path_3635" d="M1150.625 270.336s-127.814 2.906-128.565 3.313c0 0 10.682 17.184 43.12 16.292s86.833-2.441 85.445-19.605z" class="cls-2" transform="translate(-1020.216 -184.723)"/>
            <path id="Path_3636" d="M1077.414 219.36c-3.6 1.307-2.338-2.8-2.465-4.549s-.027-3.57-.749-5.165c-.575-1.273-1.665-2.395-1.669-3.792 0-1.061.636-2.007.9-3.033.37-1.413.026-2.922.263-4.364a5.67 5.67 0 0 1 6.1-4.531c1.39.181 2.73.9 4.118.7 1.528-.211 2.676-1.449 4.007-2.231a6.555 6.555 0 0 1 6.189-.284 5.5 5.5 0 0 1 2.977 5.3 4.748 4.748 0 0 1-4.242 4.164 12.443 12.443 0 0 1-3.686-.721 4.526 4.526 0 0 0-3.647.284c-1.311.893-1.875 2.953-3.454 3.1a5.021 5.021 0 0 1-2.35-.79c-.766-.338-1.839-.4-2.273.314-.359.592-.061 1.342.02 2.03a2.8 2.8 0 0 1-1.289 3.068c-.458 3.473.59 6.8 1.624 10.148" class="cls-3" transform="translate(-1015.897 -191.471)"/>
            <path id="Path_3637" d="M1050.471 277.041l-9.724-54.389h31.273l11.575 53.36z" class="cls-4" transform="translate(-1018.617 -188.803)"/>
            <path id="Path_3638" fill="#ddd2f3" d="M1052.727 276.966l-10.248-54.314h31.273l11.575 53.36z" transform="translate(-1018.469 -188.803)"/>
            <path id="Path_3639" fill="#b8abd6" d="M1073.6 222.652s-10.814 4.769-13.841 9.889c-2.615 4.425-15.13 30.448-10.49 34.093s35.446 2.486 35.446 2.486l2-8.285-24.192-4.143 14.828-13.033z" opacity="0.44" transform="translate(-1017.975 -188.803)"/>
            <path id="Path_3640" d="M1099.315 235.737c-.17-.529-1.369-12.037-13.5-11.752-11.372.266-17.7.924-21.664 9.771l4.225 16.721.875 25.869 32.8-1.057z" class="cls-7" transform="translate(-1016.614 -188.689)"/>
            <path id="Path_3641" d="M1070.179 227.089a21.921 21.921 0 0 0-7.667 7.584c-2.615 4.425-15.131 30.448-10.491 34.093s35.446 2.486 35.446 2.486l2-8.285-24.192-4.143 4.225-8.614z" class="cls-7" transform="translate(-1017.74 -188.423)"/>
            <path id="Path_3642" d="M1091.023 225.764s11.585 7.768 23.673 27.983l-4.884 11.963-12.749-16.174z" class="cls-7" transform="translate(-1014.315 -188.536)"/>
            <path id="Path_3643" d="M1079.619 273.735h26.547l1.313-2.266-27.86.8z" class="cls-4" transform="translate(-1015.291 -184.626)"/>
            <path id="Path_3644" d="M1086.022 262.873h10.878s6.653 5.929 5.5 6.217-5.214-3.723-5.214-3.723l3.1 6.884s-4.757-.647-6.3-1.943-2.984-2.3-2.984-2.3l-6.19.576z" class="cls-8" transform="translate(-1014.847 -185.361)"/>
            <g id="Group_2174" transform="translate(51.319 38.828)">
                <path id="Path_3645" d="M1068.584 227.3a3.3 3.3 0 0 1 .641-.062 2.891 2.891 0 0 1 .482.029 4.915 4.915 0 0 1 2.724 1.35 6.385 6.385 0 0 1 1.281 1.7 6.755 6.755 0 0 1 .7 2.335 13.842 13.842 0 0 1-.637 5.516 45.063 45.063 0 0 1-3.9 9.3c-.634 1.127-1.19 2.014-1.593 2.614-.2.3-.361.531-.47.687a1.6 1.6 0 0 1-.176.23 1.717 1.717 0 0 1 .144-.252l.44-.7c.382-.612.921-1.508 1.537-2.64a47.545 47.545 0 0 0 3.839-9.291 13.865 13.865 0 0 0 .647-5.442 6.408 6.408 0 0 0-1.905-3.956 4.921 4.921 0 0 0-2.641-1.374 6.7 6.7 0 0 0-1.113-.044z" class="cls-9" transform="translate(-1067.635 -227.238)"/>
            </g>
            <g id="Group_2175" transform="translate(81.083 45.716)">
                <path id="Path_3646" d="M1095.056 233.583a1.147 1.147 0 0 1 .05.23l.106.663c.1.6.227 1.429.386 2.441l1.277 8.055c.481 3.15.886 6.006 1.115 8.083.117 1.038.191 1.88.231 2.462l.035.672a1.124 1.124 0 0 1 0 .236 1.058 1.058 0 0 1-.037-.232l-.069-.669c-.063-.58-.157-1.419-.291-2.453-.264-2.069-.689-4.921-1.17-8.069s-.927-6-1.221-8.065c-.148-1.033-.257-1.87-.327-2.451l-.072-.669a1.082 1.082 0 0 1-.013-.234z" class="cls-9" transform="translate(-1095.053 -233.583)"/>
            </g>
            <g id="Group_2179" transform="translate(34.004 70.161)">
                <ellipse id="Ellipse_74" cx="6.062" cy="1.056" fill="#b8abd6" opacity="0.14" rx="6.062" ry="1.056" transform="translate(3.636 23.238)"/>
                <path id="Path_3647" fill="#fac28c" d="M1063.57 268.275s-5.236-1.981-10.116 0v1.132s-1.768-.141-1.768 1.556a4.944 4.944 0 0 0 2.829 4.882l.991 3.113s4.245 1.061 6.438 0c0 0 .5-1.63.919-3.325.304-1.222.707-7.358.707-7.358zm-11.023 3.313c-.117-1.429 1.057-.964 1.057-.964l.622 4.044s-1.462-.43-1.679-3.079z" transform="translate(-1051.685 -255.136)"/>
                <path id="Path_3648" fill="#db9d6a" d="M1062.665 268.354a19.64 19.64 0 0 0-8.639.038 6.9 6.9 0 0 0 8.639-.038z" transform="translate(-1051.485 -255.095)"/>
                <g id="Group_2176" transform="translate(2.337 17.949)">
                    <path id="Path_3649" d="M1063.142 272.639a1.466 1.466 0 0 1-.338.164 9.014 9.014 0 0 1-.962.342 13.114 13.114 0 0 1-6.675.221 9.472 9.472 0 0 1-.982-.277 1.442 1.442 0 0 1-.347-.141c.01-.033.518.125 1.357.287a14.866 14.866 0 0 0 6.611-.219c.827-.216 1.324-.407 1.336-.377z" class="cls-13" transform="translate(-1053.838 -272.636)"/>
                </g>
                <g id="Group_2177" transform="translate(2.253 16.966)">
                    <path id="Path_3650" d="M1062.918 271.733a1.363 1.363 0 0 1-.322.186 8.1 8.1 0 0 1-.934.4 11.112 11.112 0 0 1-6.6.264 7.974 7.974 0 0 1-.962-.32 1.372 1.372 0 0 1-.337-.16c.012-.031.506.156 1.332.35a12.281 12.281 0 0 0 6.526-.261c.805-.263 1.279-.492 1.297-.459z" class="cls-13" transform="translate(-1053.761 -271.73)"/>
                </g>
                <g id="Group_2178" opacity="0.07" transform="translate(2.461)">
                    <path id="Path_3651" d="M1054.2 269.4a1.207 1.207 0 0 1 .256-1.6 6.031 6.031 0 0 1 1.574-.845 1.927 1.927 0 0 0 1.184-1.257c.2-1.13-1.291-2.132-.913-3.215.354-1.019 1.951-.946 2.567-1.831.675-.97-.244-2.362.175-3.469a1.857 1.857 0 0 1 1.993-1.056 2.985 2.985 0 0 1 1.953 1.341 8.146 8.146 0 0 1 .959 2.233 3.984 3.984 0 0 1 .065 3.091c-.264.468-.733.954-.53 1.451.123.3.453.455.686.683a2.179 2.179 0 0 1 .244 2.272 5.836 5.836 0 0 1-10.46 1.142" class="cls-15" transform="translate(-1053.952 -256.102)"/>
                </g>
            </g>
            <g id="Group_2180" transform="translate(77.074 47.603)">
                <path id="Path_3652" d="M1092.945 235.323a5.1 5.1 0 0 1-.712 1.177 5.02 5.02 0 0 1-.868 1.068 10.048 10.048 0 0 1 1.581-2.245z" class="cls-16" transform="translate(-1091.361 -235.322)"/>
            </g>
            <path id="Path_3653" d="M1077.056 224.392s6.685 17.33 11.351 23.187c0 0 1.961-17.092 0-23.263 0 0-8.953-1.074-11.351.076z" class="cls-15" transform="translate(-1015.51 -188.699)"/>
            <path id="Path_3654" d="M1076.319 198.494l-.448 10.28s-3.158-.039-3.156 2.86a2.818 2.818 0 0 0 3.424 3.032s-.708 6.951 8.829 7.524c11.155.671 8.782-16.764 8.351-24.948z" class="cls-8" transform="translate(-1015.881 -190.977)"/>
            <path id="Path_3655" d="M1088.33 212.841l-.554 12.536a4.857 4.857 0 0 1-7.027 4.128l-.12-.061a4.858 4.858 0 0 1-2.678-4.5c.134-4.4.18-12 .18-12z" class="cls-8" transform="translate(-1015.433 -189.642)"/>
            <g id="Group_2181" transform="translate(60.66 35.828)">
                <path id="Path_3656" d="M1088.477 247.526a1.8 1.8 0 0 1-.225-.19c-.143-.128-.351-.321-.615-.573-.53-.5-1.279-1.252-2.193-2.186s-1.992-2.055-3.236-3.25a23.577 23.577 0 0 1-1.908-1.937 5.684 5.684 0 0 1-1.313-2.613 3.491 3.491 0 0 1 .331-2.323l.142.117a1.345 1.345 0 0 1-1.286.211 1.9 1.9 0 0 1-1.016-.748 4.447 4.447 0 0 1-.563-2.247l-.205-3.836-.121-2.549-.025-.687a1.345 1.345 0 0 1 0-.239 1.231 1.231 0 0 1 .031.237l.057.685c.043.617.1 1.48.179 2.547l.246 3.833a4.31 4.31 0 0 0 .546 2.156 1.728 1.728 0 0 0 .922.673 1.162 1.162 0 0 0 1.112-.177l.412-.363-.27.48a3.307 3.307 0 0 0-.307 2.2 5.529 5.529 0 0 0 1.27 2.528 23.954 23.954 0 0 0 1.887 1.929c1.241 1.2 2.308 2.339 3.211 3.283s1.635 1.706 2.147 2.226l.592.6a1.519 1.519 0 0 1 .198.213z" class="cls-9" transform="translate(-1076.239 -224.475)"/>
            </g>
            <g id="Group_2182" transform="translate(72.897 35.616)">
                <path id="Path_3657" d="M1087.512 224.28a.764.764 0 0 1 .146.113c.092.078.225.2.39.36a9.889 9.889 0 0 1 1.265 1.522 11.509 11.509 0 0 1 .7 1.2 5.978 5.978 0 0 1 .584 1.513 4.64 4.64 0 0 1 .055 1.822 3.378 3.378 0 0 1-.878 1.784v-.125a2.871 2.871 0 0 1 .648 1.349 5.587 5.587 0 0 1 .057 1.555c-.08.866-.258 1.687-.4 2.485s-.3 1.564-.457 2.294c-.307 1.458-.619 2.764-.9 3.856s-.521 1.971-.7 2.576l-.209.695a1.284 1.284 0 0 1-.087.238 1.33 1.33 0 0 1 .05-.249c.045-.179.1-.413.175-.7.154-.61.379-1.493.638-2.588s.557-2.4.854-3.86c.149-.728.3-1.495.446-2.292s.314-1.621.392-2.467a5.44 5.44 0 0 0-.053-1.5 2.69 2.69 0 0 0-.6-1.266l-.057-.063.06-.062a3.224 3.224 0 0 0 .839-1.686 4.514 4.514 0 0 0-.04-1.758 5.929 5.929 0 0 0-.554-1.484 11.991 11.991 0 0 0-.678-1.2A10.973 10.973 0 0 0 1088 224.8l-.367-.381a.842.842 0 0 1-.121-.139z" class="cls-9" transform="translate(-1087.512 -224.28)"/>
            </g>
            <g id="Group_2183" transform="translate(72.733 58.946)">
                <path id="Path_3658" d="M1088.64 264.336c-.052 0-.379-4.15-.731-9.276s-.593-9.286-.541-9.289.379 4.149.731 9.276.593 9.285.541 9.289z" class="cls-9" transform="translate(-1087.362 -245.771)"/>
            </g>
            <g id="Group_2184" transform="translate(74.675 63.745)">
                <path id="Path_3659" d="M1090.155 250.357c0-.009.087-.043.252-.025a.984.984 0 0 1 .618.317 1.013 1.013 0 0 1 .19 1.012 1.031 1.031 0 0 1-1.049.674 1.121 1.121 0 0 1-.961-.8 1.109 1.109 0 0 1 .163-1.017.855.855 0 0 1 .617-.321c.168 0 .253.043.249.052s-.091 0-.24.022a.823.823 0 0 0-.519.329.985.985 0 0 0-.1.882.96.96 0 0 0 .808.67.861.861 0 0 0 .871-.545.885.885 0 0 0-.126-.864 1 1 0 0 0-.53-.332c-.153-.045-.242-.038-.243-.054z" class="cls-9" transform="translate(-1089.15 -250.192)"/>
            </g>
            <g id="Group_2185" transform="translate(75.266 71.115)">
                <path id="Path_3660" d="M1090.7 257.146c0-.01.086-.044.252-.026a.987.987 0 0 1 .617.318 1.011 1.011 0 0 1 .19 1.011 1.03 1.03 0 0 1-1.048.674 1.122 1.122 0 0 1-.962-.8 1.11 1.11 0 0 1 .163-1.018.849.849 0 0 1 .618-.32c.168-.005.252.042.249.051s-.091 0-.241.022a.833.833 0 0 0-.519.329.991.991 0 0 0-.1.881.961.961 0 0 0 .808.67.863.863 0 0 0 .872-.545.885.885 0 0 0-.127-.864.992.992 0 0 0-.529-.332c-.152-.043-.243-.035-.243-.051z" class="cls-9" transform="translate(-1089.695 -256.981)"/>
            </g>
            <g id="Group_2186" transform="translate(75.338 64.475)">
                <path id="Path_3661" d="M1089.942 250.894a.12.12 0 0 1-.123.183c-.051-.007-.082-.085-.035-.156s.132-.071.158-.027z" class="cls-9" transform="translate(-1089.761 -250.864)"/>
            </g>
            <g id="Group_2187" transform="translate(75.903 64.899)">
                <path id="Path_3662" d="M1090.428 251.268a.1.1 0 0 1-.1.163.1.1 0 0 1-.029-.131.1.1 0 0 1 .129-.032z" class="cls-9" transform="translate(-1090.281 -251.254)"/>
            </g>
            <g id="Group_2188" transform="translate(75.857 71.82)">
                <path id="Path_3663" d="M1090.431 257.646a.137.137 0 0 1-.163.2.137.137 0 0 1 .163-.2z" class="cls-9" transform="translate(-1090.24 -257.63)"/>
            </g>
            <g id="Group_2189" transform="translate(76.399 72.384)">
                <path id="Path_3664" d="M1090.979 258.172c.035.039.013.115-.049.172s-.14.071-.176.031-.013-.115.049-.172.14-.07.176-.031z" class="cls-9" transform="translate(-1090.738 -258.15)"/>
            </g>
            <g id="Group_2190" transform="translate(69.651 74.95)">
                <path id="Path_3665" d="M1086.383 260.513c.052.011-.323 2.156-.835 4.791s-.971 4.765-1.022 4.755.322-2.155.835-4.791.971-4.768 1.022-4.755z" class="cls-9" transform="translate(-1084.522 -260.513)"/>
            </g>
            <g id="Group_2191" transform="translate(65.482 74.373)">
                <path id="Path_3666" d="M1082.685 259.982c.051.012-.355 2.115-.906 4.7s-1.041 4.669-1.092 4.658.354-2.114.906-4.7 1.041-4.669 1.092-4.658z" class="cls-9" transform="translate(-1080.682 -259.982)"/>
            </g>
            <g id="Group_2192" transform="translate(52.358 71.257)">
                <path id="Path_3667" d="M1088.059 260.865c-.01.052-4.376-.747-9.751-1.782s-9.727-1.918-9.717-1.969 4.376.747 9.753 1.782 9.725 1.918 9.715 1.969z" class="cls-9" transform="translate(-1068.592 -257.111)"/>
            </g>
            <g id="Group_2193" transform="translate(52.688 82.978)">
                <path id="Path_3668" d="M1085.863 269.265c0 .052-3.806-.207-8.491-.581s-8.48-.718-8.476-.77 3.8.208 8.491.581 8.481.718 8.476.77z" class="cls-9" transform="translate(-1068.896 -267.908)"/>
            </g>
            <g id="Group_2194" transform="translate(74.193 82.837)">
                <path id="Path_3669" d="M1089.12 271.892a9.788 9.788 0 0 1-.317-4.114c.055 0 .039.926.128 2.059s.243 2.043.189 2.055z" class="cls-9" transform="translate(-1088.706 -267.778)"/>
            </g>
            <g id="Group_2195" transform="translate(76.19 53.62)">
                <path id="Path_3670" d="M1095.68 240.886a35.047 35.047 0 0 1-5.134.4 35.051 35.051 0 0 1 5.134-.4z" class="cls-9" transform="translate(-1090.546 -240.865)"/>
            </g>
            <g id="Group_2196" transform="translate(82.862 54.878)">
                <path id="Path_3671" d="M1111.281 259.968c-.04.033-3.339-3.958-7.368-8.912s-7.262-9-7.221-9.033 3.339 3.957 7.369 8.914 7.261 8.998 7.22 9.031z" class="cls-9" transform="translate(-1096.692 -242.023)"/>
            </g>
            <g id="Group_2197" transform="translate(54.011 58.06)">
                <path id="Path_3672" d="M1071.106 258.574c-.052 0-.315-3.043-.586-6.8s-.448-6.813-.4-6.816.315 3.042.586 6.8.452 6.811.4 6.816z" class="cls-9" transform="translate(-1070.115 -244.954)"/>
            </g>
            <g id="Group_2198" transform="translate(55.864 83.317)">
                <path id="Path_3673" d="M1072.531 272.455a7.035 7.035 0 0 1-.6-4.234c.059 0-.011.968.159 2.137s.495 2.077.441 2.097z" class="cls-9" transform="translate(-1071.822 -268.221)"/>
            </g>
            <g id="Group_2199" transform="translate(78.548 50.934)">
                <path id="Path_3674" d="M1093.837 239.717c-.04.034-.322-.234-.63-.6s-.525-.689-.485-.723.322.234.63.6.526.689.485.723z" class="cls-16" transform="translate(-1092.718 -238.39)"/>
            </g>
            <g id="Group_2200" transform="translate(61.021 58.599)">
                <path id="Path_3675" d="M1077.765 245.452a2.987 2.987 0 0 1-.516.924 3.04 3.04 0 0 1-.672.816 5.9 5.9 0 0 1 1.188-1.74z" class="cls-16" transform="translate(-1076.572 -245.45)"/>
            </g>
            <g id="Group_2201" transform="translate(55.818 60.563)">
                <path id="Path_3676" d="M1073.6 248.994a8.443 8.443 0 0 1-1.823-1.73 8.374 8.374 0 0 1 1.823 1.73z" class="cls-16" transform="translate(-1071.78 -247.26)"/>
            </g>
            <g id="Group_2202" transform="translate(57.858 55.409)">
                <path id="Path_3677" d="M1074.346 244.6a2.591 2.591 0 0 1-.644-2.086c.056 0 .093.489.272 1.058s.419.996.372 1.028z" class="cls-16" transform="translate(-1073.659 -242.512)"/>
            </g>
            <g id="Group_2203" transform="translate(59.303 52.131)">
                <path id="Path_3678" d="M1076.665 240.749a3 3 0 0 1-1.672-1.254 5.875 5.875 0 0 1 .837.626 5.813 5.813 0 0 1 .835.628z" class="cls-16" transform="translate(-1074.99 -239.492)"/>
            </g>
            <g id="Group_2204" transform="translate(67.003 57.652)">
                <path id="Path_3679" d="M1083.052 244.58a2.457 2.457 0 0 1-.4.867c-.266.453-.518.8-.563.771a4.793 4.793 0 0 1 .963-1.638z" class="cls-16" transform="translate(-1082.083 -244.579)"/>
            </g>
            <g id="Group_2205" transform="translate(64.985 53.805)">
                <path id="Path_3680" d="M1080.468 243.474a4.628 4.628 0 0 1-.139-2.439 6.39 6.39 0 0 1 .094 1.218 6.3 6.3 0 0 1 .045 1.221z" class="cls-16" transform="translate(-1080.224 -241.035)"/>
            </g>
            <g id="Group_2206" transform="translate(64.788 61.959)">
                <path id="Path_3681" d="M1080.468 251.06a3.728 3.728 0 0 1-.33-2.514c.055 0 .04.572.132 1.261s.25 1.235.198 1.253z" class="cls-16" transform="translate(-1080.043 -248.546)"/>
            </g>
            <g id="Group_2207" transform="translate(61.111 64.606)">
                <path id="Path_3682" d="M1078.057 252.936a3.768 3.768 0 0 1-1.394-1.951 106.945 106.945 0 0 0 1.394 1.951z" class="cls-16" transform="translate(-1076.656 -250.984)"/>
            </g>
            <g id="Group_2208" transform="translate(57.221 67.747)">
                <path id="Path_3683" d="M1074.538 253.883c.03.042-.272.31-.676.6a2.214 2.214 0 0 1-.787.446c-.03-.043.272-.312.676-.6a2.182 2.182 0 0 1 .787-.446z" class="cls-16" transform="translate(-1073.072 -253.878)"/>
            </g>
            <g id="Group_2209" transform="translate(55.608 64.671)">
                <path id="Path_3684" d="M1072.337 252.118c-.03.04-.3-.124-.512-.437s-.271-.621-.223-.635.18.241.379.529.391.501.356.543z" class="cls-16" transform="translate(-1071.586 -251.044)"/>
            </g>
            <g id="Group_2210" transform="translate(61.788 70.731)">
                <path id="Path_3685" d="M1077.84 256.627a5.123 5.123 0 1 1-.365.916 2.633 2.633 0 0 1 .365-.916z" class="cls-16" transform="translate(-1077.278 -256.627)"/>
            </g>
            <g id="Group_2211" transform="translate(65.067 69.834)">
                <path id="Path_3686" d="M1081.3 257.747a2.82 2.82 0 0 1-.987-1.946 19.94 19.94 0 0 0 .987 1.946z" class="cls-16" transform="translate(-1080.299 -255.801)"/>
            </g>
            <g id="Group_2212" transform="translate(68.847 70.6)">
                <path id="Path_3687" d="M1085.666 257.764a6.788 6.788 0 0 1-1.882-1.253 6.747 6.747 0 0 1 1.882 1.253z" class="cls-16" transform="translate(-1083.782 -256.506)"/>
            </g>
            <g id="Group_2213" transform="translate(69.572 66.443)">
                <path id="Path_3688" d="M1086.123 252.68a6.3 6.3 0 0 1-1.672 1.394 3.221 3.221 0 0 1 .775-.77 3.188 3.188 0 0 1 .897-.624z" class="cls-16" transform="translate(-1084.449 -252.676)"/>
            </g>
            <g id="Group_2214" transform="translate(66.67 66.408)">
                <path id="Path_3689" d="M1082.347 252.648c.042.03-.049.227-.2.438s-.315.357-.357.327.049-.227.2-.439.316-.357.357-.326z" class="cls-16" transform="translate(-1081.776 -252.644)"/>
            </g>
            <g id="Group_2215" transform="translate(68.425 61.759)">
                <path id="Path_3690" d="M1085.216 249.955a7.793 7.793 0 0 1-.912-.794 7.688 7.688 0 0 1-.91-.795 3.958 3.958 0 0 1 1.822 1.588z" class="cls-16" transform="translate(-1083.393 -248.361)"/>
            </g>
            <g id="Group_2216" transform="translate(61.081 47.95)">
                <path id="Path_3691" d="M1076.631 238.18c-.045-.035.333-.543.661-1.242s.49-1.309.545-1.3a4.012 4.012 0 0 1-1.206 2.539z" class="cls-16" transform="translate(-1076.628 -235.641)"/>
            </g>
            <g id="Group_2217" transform="translate(59.05 45.931)">
                <path id="Path_3692" d="M1075.021 236.358a5.345 5.345 0 0 1-.177-2.577 6.815 6.815 0 0 1 .119 1.286 6.68 6.68 0 0 1 .058 1.291z" class="cls-16" transform="translate(-1074.757 -233.781)"/>
            </g>
            <g id="Group_2218" transform="translate(57.974 39.938)">
                <path id="Path_3693" d="M1075.169 229.3a1.268 1.268 0 0 1-.838-.333c-.412-.305-.6-.685-.559-.708s.291.275.672.556.741.436.725.485z" class="cls-16" transform="translate(-1073.765 -228.261)"/>
            </g>
            <g id="Group_2219" transform="translate(56.728 37.283)">
                <path id="Path_3694" d="M1073.943 225.827c.023.048-.256.226-.622.4s-.681.275-.7.227.256-.226.622-.4.679-.275.7-.227z" class="cls-16" transform="translate(-1072.618 -225.815)"/>
            </g>
            <g id="Group_2220" transform="translate(62.602 41.26)">
                <path id="Path_3695" d="M1078.065 231.221a4.118 4.118 0 1 1 .2-.86 2.123 2.123 0 0 1-.2.86z" class="cls-16" transform="translate(-1078.029 -229.479)"/>
            </g>
            <g id="Group_2221" transform="translate(64.809 47.732)">
                <path id="Path_3696" d="M1080.9 236.077c-.031.042-.244-.064-.474-.238s-.393-.347-.361-.39.244.065.474.238.394.349.361.39z" class="cls-16" transform="translate(-1080.061 -235.441)"/>
            </g>
            <g id="Group_2222" transform="translate(74.503 46.416)">
                <path id="Path_3697" d="M1089.462 234.228a5.33 5.33 0 1 1-.318.951 2.706 2.706 0 0 1 .318-.951z" class="cls-16" transform="translate(-1088.991 -234.228)"/>
            </g>
            <g id="Group_2223" transform="translate(74.411 40.704)">
                <path id="Path_3698" d="M1089.69 229.943c-.024.045-.306-.078-.534-.369s-.281-.594-.232-.607.175.23.382.49.413.443.384.486z" class="cls-16" transform="translate(-1088.907 -228.966)"/>
            </g>
            <g id="Group_2224" transform="translate(76.859 42.794)">
                <path id="Path_3699" d="M1092.075 230.893a2.029 2.029 0 0 1-.372.782c-.25.4-.489.709-.533.682a2.05 2.05 0 0 1 .372-.782c.25-.404.489-.709.533-.682z" class="cls-16" transform="translate(-1091.162 -230.891)"/>
            </g>
            <g id="Group_2225" transform="translate(79.722 43.003)">
                <path id="Path_3700" d="M1093.849 233.244a6.2 6.2 0 0 1 .129-2.16 6.2 6.2 0 0 1-.129 2.16z" class="cls-16" transform="translate(-1093.799 -231.084)"/>
            </g>
            <g id="Group_2226" transform="translate(76.708 38.068)">
                <path id="Path_3701" d="M1092.559 228.421a4 4 0 0 1-.84-.88 3.933 3.933 0 0 1-.693-1 4 4 0 0 1 .84.88 3.937 3.937 0 0 1 .693 1z" class="cls-16" transform="translate(-1091.023 -226.538)"/>
            </g>
            <g id="Group_2227" transform="translate(53.058 45.022)">
                <path id="Path_3702" d="M1069.257 235.521a4.616 4.616 0 0 1 .117-1.3 4.559 4.559 0 0 1 .305-1.273 4.624 4.624 0 0 1-.117 1.3 4.574 4.574 0 0 1-.305 1.273z" class="cls-16" transform="translate(-1069.237 -232.944)"/>
            </g>
            <g id="Group_2228" transform="translate(49.135 43.177)">
                <path id="Path_3703" d="M1067.572 231.278a30.924 30.924 0 0 1-1.947.5 3 3 0 0 1 1.947-.5z" class="cls-16" transform="translate(-1065.623 -231.244)"/>
            </g>
            <g id="Group_2229" transform="translate(52.613 40.214)">
                <path id="Path_3704" d="M1070.085 229.772c-.037.037-.348-.214-.695-.56s-.6-.657-.56-.694.349.214.695.56.597.657.56.694z" class="cls-16" transform="translate(-1068.827 -228.515)"/>
            </g>
            <g id="Group_2230" transform="translate(55.931 44.468)">
                <path id="Path_3705" d="M1072.123 234.593a2.988 2.988 0 0 1-.069-2.159 48.975 48.975 0 0 0 .069 2.159z" class="cls-16" transform="translate(-1071.884 -232.434)"/>
            </g>
            <g id="Group_2231" transform="translate(53.296 51.839)">
                <path id="Path_3706" d="M1069.466 241.117a5.6 5.6 0 0 1 .81-1.893 5.664 5.664 0 0 1-.81 1.893z" class="cls-16" transform="translate(-1069.456 -239.223)"/>
            </g>
            <g id="Group_2232" transform="translate(50.723 49.203)">
                <path id="Path_3707" d="M1067.1 238.263a1.425 1.425 0 0 1 .323-.841c.28-.422.621-.661.652-.622s-.231.328-.495.727-.43.753-.48.736z" class="cls-16" transform="translate(-1067.086 -236.795)"/>
            </g>
            <g id="Group_2233" transform="translate(47.322 47.676)">
                <path id="Path_3708" d="M1063.961 237.62a4 4 0 0 1 .4-1.153 3.964 3.964 0 0 1 .574-1.078 7.846 7.846 0 0 1-.975 2.231z" class="cls-16" transform="translate(-1063.953 -235.388)"/>
            </g>
            <g id="Group_2234" transform="translate(45.114 46.837)">
                <path id="Path_3709" d="M1061.947 236.844a6.745 6.745 0 1 1 .24-1.1 3.431 3.431 0 0 1-.24 1.1z" class="cls-16" transform="translate(-1061.919 -234.616)"/>
            </g>
            <g id="Group_2235" transform="translate(42.628 53.187)">
                <path id="Path_3710" d="M1060.617 242.136a2.529 2.529 0 0 1-.572-.786 2.57 2.57 0 0 1-.409-.883 2.529 2.529 0 0 1 .572.786 2.572 2.572 0 0 1 .409.883z" class="cls-16" transform="translate(-1059.629 -240.466)"/>
            </g>
            <g id="Group_2236" transform="translate(45.692 51.091)">
                <path id="Path_3711" d="M1063.035 240.483a5.534 5.534 0 1 1-.194-1 2.81 2.81 0 0 1 .194 1z" class="cls-16" transform="translate(-1062.452 -238.535)"/>
            </g>
            <g id="Group_2237" transform="translate(47.594 55.131)">
                <path id="Path_3712" d="M1066.373 242.264a112.556 112.556 0 0 1-2.168 1.31 4.5 4.5 0 0 1 2.168-1.31z" class="cls-16" transform="translate(-1064.203 -242.256)"/>
            </g>
            <g id="Group_2238" transform="translate(50.596 58.403)">
                <path id="Path_3713" d="M1066.973 247.365a2309.412 2309.412 0 0 0 1.109-2.094 3.8 3.8 0 0 1-1.109 2.094z" class="cls-16" transform="translate(-1066.969 -245.271)"/>
            </g>
            <g id="Group_2239" transform="translate(48.031 58.683)">
                <path id="Path_3714" d="M1064.653 248.106a4.474 4.474 0 0 1-.021-1.294 4.424 4.424 0 0 1 .168-1.284 4.529 4.529 0 0 1 .021 1.3 4.465 4.465 0 0 1-.168 1.278z" class="cls-16" transform="translate(-1064.606 -245.528)"/>
            </g>
            <g id="Group_2240" transform="translate(43.68 57.851)">
                <path id="Path_3715" d="M1062.571 246.771a2.509 2.509 0 0 1-1.218-.774 2.484 2.484 0 0 1-.748-1.234c.051-.025.336.549.884 1.1s1.111.857 1.082.908z" class="cls-16" transform="translate(-1060.598 -244.762)"/>
            </g>
            <g id="Group_2241" transform="translate(41.396 57.222)">
                <path id="Path_3716" d="M1058.514 246.344a3.283 3.283 0 0 1 .115-1.1 3.239 3.239 0 0 1 .3-1.063 6.456 6.456 0 0 1-.416 2.161z" class="cls-16" transform="translate(-1058.494 -244.183)"/>
            </g>
            <g id="Group_2242" transform="translate(46.897 64.252)">
                <path id="Path_3717" d="M1064.892 250.665c.028.046-.294.294-.653.636s-.627.649-.672.618a2.454 2.454 0 0 1 1.325-1.254z" class="cls-16" transform="translate(-1063.561 -250.658)"/>
            </g>
            <g id="Group_2243" transform="translate(43.168 63.561)">
                <path id="Path_3718" d="M1060.241 252.461a7.89 7.89 0 0 1-.036-2.439 3.966 3.966 0 0 1 .113 1.218 4.023 4.023 0 0 1-.077 1.221z" class="cls-16" transform="translate(-1060.127 -250.022)"/>
            </g>
            <g id="Group_2244" transform="translate(38.805 66.506)">
                <path id="Path_3719" d="M1058.279 253.632a4.206 4.206 0 0 1-2.171-.891 30.179 30.179 0 0 1 2.171.891z" class="cls-16" transform="translate(-1056.107 -252.734)"/>
            </g>
            <g id="Group_2245" transform="translate(39.35 61.609)">
                <path id="Path_3720" d="M1056.93 250.382a6.27 6.27 0 1 1-.052-1.091 3.22 3.22 0 0 1 .052 1.091z" class="cls-16" transform="translate(-1056.61 -248.224)"/>
            </g>
            <g id="Group_2246" transform="translate(41.884 69.728)">
                <path id="Path_3721" d="M1060.894 255.726a5.245 5.245 0 0 1-1.95.355 2.684 2.684 0 0 1 .959-.27 2.64 2.64 0 0 1 .991-.085z" class="cls-16" transform="translate(-1058.944 -255.702)"/>
            </g>
            <g id="Group_2247" transform="translate(37.118 69.275)">
                <path id="Path_3722" d="M1054.8 257.375a3 3 0 0 1-.2-1.035 2.959 2.959 0 0 1-.01-1.055 5.893 5.893 0 0 1 .209 2.09z" class="cls-16" transform="translate(-1054.553 -255.285)"/>
            </g>
            <g id="Group_2248" transform="translate(34.693 72.967)">
                <path id="Path_3723" d="M1052.817 260.849a6.5 6.5 0 1 1-.148-1.1 3.314 3.314 0 0 1 .148 1.1z" class="cls-16" transform="translate(-1052.319 -258.687)"/>
            </g>
            <g id="Group_2249" transform="translate(35.263 76.998)">
                <path id="Path_3724" d="M1054.587 262.408a5.165 5.165 0 0 1-1.741.908 2.6 2.6 0 0 1 .826-.538 2.625 2.625 0 0 1 .915-.37z" class="cls-16" transform="translate(-1052.845 -262.4)"/>
            </g>
            <g id="Group_2250" transform="translate(38.124 74.009)">
                <path id="Path_3725" d="M1056.641 261.828a3.851 3.851 0 0 1-1.151-2.181 9.288 9.288 0 0 1 .564 1.1 9.456 9.456 0 0 1 .587 1.081z" class="cls-16" transform="translate(-1055.48 -259.647)"/>
            </g>
            <g id="Group_2251" transform="translate(41.687 73.265)">
                <path id="Path_3726" d="M1059.435 260.551a3.968 3.968 0 1 1-.243-.83 2.037 2.037 0 0 1 .243.83z" class="cls-16" transform="translate(-1058.763 -258.961)"/>
            </g>
            <g id="Group_2252" transform="translate(38.957 78.122)">
                <path id="Path_3727" d="M1058.13 263.438a8.433 8.433 0 0 1-1.881 1.673 8.42 8.42 0 0 1 1.881-1.673z" class="cls-16" transform="translate(-1056.247 -263.435)"/>
            </g>
            <g id="Group_2253" transform="translate(43.534 77.159)">
                <path id="Path_3728" d="M1062.184 264.955a5.638 5.638 0 0 1-1.715-2.406 138.255 138.255 0 0 0 1.715 2.406z" class="cls-16" transform="translate(-1060.463 -262.548)"/>
            </g>
            <g id="Group_2254" transform="translate(42.164 81.213)">
                <path id="Path_3729" d="M1061.153 266.33a5.067 5.067 0 0 1-1.951.14 5.125 5.125 0 0 1 1.951-.14z" class="cls-16" transform="translate(-1059.202 -266.282)"/>
            </g>
            <g id="Group_2255" transform="translate(46.039 71.232)">
                <path id="Path_3730" d="M1063.7 260.148a13.437 13.437 0 0 1-.925-3.06 13.664 13.664 0 0 1 .925 3.06z" class="cls-16" transform="translate(-1062.771 -257.088)"/>
            </g>
            <g id="Group_2256" transform="translate(48.926 72.622)">
                <path id="Path_3731" d="M1067.87 258.393a8.051 8.051 0 0 1-2.439.34 8.037 8.037 0 0 1 2.439-.34z" class="cls-16" transform="translate(-1065.431 -258.368)"/>
            </g>
            <g id="Group_2257" transform="translate(47.528 77.197)">
                <path id="Path_3732" d="M1065.678 262.6a31166.309 31166.309 0 0 0-1.533.7c-.034-.037.246-.321.687-.521a1.363 1.363 0 0 1 .846-.179z" class="cls-16" transform="translate(-1064.143 -262.583)"/>
            </g>
            <g id="Group_2258" transform="translate(49.117 79.39)">
                <path id="Path_3733" d="M1067.433 266.475a9.079 9.079 0 0 1-1.824-1.869 9.005 9.005 0 0 1 1.824 1.869z" class="cls-16" transform="translate(-1065.607 -264.603)"/>
            </g>
            <g id="Group_2259" transform="translate(53.087 75.686)">
                <path id="Path_3734" d="M1069.281 263.421a5.221 5.221 0 0 1 .079-1.117 5.418 5.418 0 0 1 .129-1.113 3.893 3.893 0 0 1-.208 2.23z" class="cls-16" transform="translate(-1069.263 -261.191)"/>
            </g>
            <g id="Group_2260" transform="translate(53.6 80.377)">
                <path id="Path_3735" d="M1072.11 265.52a8.891 8.891 0 0 1-2.373 1.036 8.884 8.884 0 0 1 2.373-1.036z" class="cls-16" transform="translate(-1069.737 -265.512)"/>
            </g>
            <g id="Group_2261" transform="translate(56.246 72.822)">
                <path id="Path_3736" d="M1073.572 261.063a5.435 5.435 0 0 1-.779-1.208 5.514 5.514 0 0 1-.615-1.3 10.943 10.943 0 0 1 1.394 2.509z" class="cls-16" transform="translate(-1072.173 -258.553)"/>
            </g>
            <g id="Group_2262" transform="translate(56.488 77.259)">
                <path id="Path_3737" d="M1074.727 262.749a8.766 8.766 0 0 1-1.167.1 9.033 9.033 0 0 1-1.163.134 3.444 3.444 0 0 1 2.33-.237z" class="cls-16" transform="translate(-1072.396 -262.64)"/>
            </g>
            <g id="Group_2263" transform="translate(61.255 74.15)">
                <path id="Path_3738" d="M1078.463 261.87c-.05.025-.353-.493-.813-1.064s-.9-.985-.86-1.027a4.2 4.2 0 0 1 1.673 2.091z" class="cls-16" transform="translate(-1076.788 -259.776)"/>
            </g>
            <g id="Group_2264" transform="translate(60.146 79.677)">
                <path id="Path_3739" d="M1077.586 264.879a5.045 5.045 0 0 1-1.819.678 5.027 5.027 0 0 1 1.819-.678z" class="cls-16" transform="translate(-1075.766 -264.867)"/>
            </g>
            <g id="Group_2265" transform="translate(68.192 79.519)">
                <path id="Path_3740" d="M1083.5 266.811a5.869 5.869 0 0 1-.293-2.089 3.069 3.069 0 0 1 .24 1.031 3 3 0 0 1 .053 1.058z" class="cls-16" transform="translate(-1083.179 -264.722)"/>
            </g>
            <g id="Group_2266" transform="translate(69.392 75.059)">
                <path id="Path_3741" d="M1084.307 263.053a4.122 4.122 0 0 1 .081-1.233.62.62 0 1 1-.081 1.233z" class="cls-16" transform="translate(-1084.284 -260.614)"/>
            </g>
            <g id="Group_2267" transform="translate(63.626 78.544)">
                <path id="Path_3742" d="M1080.37 263.824a8.806 8.806 0 0 1-.609 1.71 8.678 8.678 0 0 1-.784 1.636 8.822 8.822 0 0 1 .609-1.709 8.718 8.718 0 0 1 .784-1.637z" class="cls-16" transform="translate(-1078.972 -263.824)"/>
            </g>
            <g id="Group_2268" transform="translate(52.928 63.633)">
                <path id="Path_3743" d="M1069.493 252.6a4.325 4.325 0 0 1-.269-1.241 4.281 4.281 0 0 1-.082-1.267 4.331 4.331 0 0 1 .269 1.241 4.286 4.286 0 0 1 .082 1.267z" class="cls-16" transform="translate(-1069.117 -250.088)"/>
            </g>
            <g id="Group_2269" transform="translate(53.353 68.927)">
                <path id="Path_3744" d="M1069.815 256.429c-.045.022-.228-.281-.287-.707s.031-.766.081-.758.05.337.106.732.15.712.1.733z" class="cls-16" transform="translate(-1069.509 -254.965)"/>
            </g>
            <g id="Group_2270" transform="translate(54.061 84.814)">
                <path id="Path_3745" d="M1070.6 271.342a4.293 4.293 0 1 1-.117-.893 2.21 2.21 0 0 1 .117.893z" class="cls-16" transform="translate(-1070.161 -269.6)"/>
            </g>
            <g id="Group_2271" transform="translate(57.08 85.004)">
                <path id="Path_3746" d="M1075.311 270.551a8.223 8.223 0 0 1-2.369-.766 8.223 8.223 0 0 1 2.369.766z" class="cls-16" transform="translate(-1072.942 -269.774)"/>
            </g>
            <g id="Group_2272" transform="translate(62.231 84.95)">
                <path id="Path_3747" d="M1079.153 269.729c.033.04-.268.339-.672.665a2.455 2.455 0 0 1-.791.519c-.032-.041.268-.339.672-.667a2.4 2.4 0 0 1 .791-.517z" class="cls-16" transform="translate(-1077.687 -269.725)"/>
            </g>
            <g id="Group_2273" transform="translate(65.856 85.211)">
                <path id="Path_3748" d="M1083.05 270.681a6.383 6.383 0 0 1-1.011-.35 6.484 6.484 0 0 1-1.013-.343 3.06 3.06 0 0 1 2.023.693z" class="cls-16" transform="translate(-1081.026 -269.965)"/>
            </g>
            <g id="Group_2274" transform="translate(71.906 84.183)">
                <path id="Path_3749" d="M1087.449 269.022c.038.038-.177.314-.4.673s-.383.67-.434.651a1.257 1.257 0 0 1 .275-.752c.234-.38.524-.608.559-.572z" class="cls-16" transform="translate(-1086.599 -269.019)"/>
            </g>
            <g id="Group_2275" transform="translate(72.506 72.065)">
                <path id="Path_3750" d="M1087.523 260.155a7.195 7.195 0 1 1-.08-1.164 3.637 3.637 0 0 1 .08 1.164z" class="cls-16" transform="translate(-1087.152 -257.856)"/>
            </g>
            <g id="Group_2276" transform="translate(75.265 75.329)">
                <path id="Path_3751" d="M1091.365 262.055a2.832 2.832 0 0 1-.889-.517 2.864 2.864 0 0 1-.781-.671 2.813 2.813 0 0 1 .89.517 2.861 2.861 0 0 1 .78.671z" class="cls-16" transform="translate(-1089.693 -260.862)"/>
            </g>
            <g id="Group_2277" transform="translate(81.256 67.405)">
                <path id="Path_3752" d="M1095.221 256.342a11.407 11.407 0 0 1 .932-2.779 5.724 5.724 0 0 1-.376 1.42 5.782 5.782 0 0 1-.556 1.359z" class="cls-16" transform="translate(-1095.212 -253.563)"/>
            </g>
            <g id="Group_2278" transform="translate(77.107 68.463)">
                <path id="Path_3753" d="M1093.026 255.845a2.959 2.959 0 0 1-.876-.578c-.45-.36-.79-.685-.758-.726a2.959 2.959 0 0 1 .876.578c.451.36.791.681.758.726z" class="cls-16" transform="translate(-1091.39 -254.537)"/>
            </g>
            <g id="Group_2279" transform="translate(79.167 64.82)">
                <path id="Path_3754" d="M1094.134 251.182a5.356 5.356 0 0 1-.837 1.811 5.276 5.276 0 0 1 .837-1.811z" class="cls-16" transform="translate(-1093.288 -251.181)"/>
            </g>
            <g id="Group_2280" transform="translate(74.412 67.533)">
                <path id="Path_3755" d="M1089.69 255.493a3.117 3.117 0 0 1-.766-1.812 3.951 3.951 0 0 1 .411.895 3.91 3.91 0 0 1 .355.917z" class="cls-16" transform="translate(-1088.908 -253.681)"/>
            </g>
            <g id="Group_2281" transform="translate(77.562 60.075)">
                <path id="Path_3756" d="M1093.2 246.812a2.406 2.406 0 0 1-1.394 1.324c-.027-.048.326-.292.7-.655s.652-.698.694-.669z" class="cls-16" transform="translate(-1091.81 -246.81)"/>
            </g>
            <g id="Group_2282" transform="translate(73.865 59.169)">
                <path id="Path_3757" d="M1089.455 247.511c-.043.029-.313-.29-.6-.713a2.343 2.343 0 0 1-.444-.82c.043-.029.312.29.6.713a2.379 2.379 0 0 1 .444.82z" class="cls-16" transform="translate(-1088.404 -245.976)"/>
            </g>
            <g id="Group_2283" transform="translate(77.212 56.03)">
                <path id="Path_3758" d="M1093.091 244.066a2.373 2.373 0 0 1-.85-.406c-.443-.27-.779-.524-.752-.569a2.4 2.4 0 0 1 .851.407c.442.27.779.524.751.568z" class="cls-16" transform="translate(-1091.488 -243.085)"/>
            </g>
            <g id="Group_2284" transform="translate(81.449 57.498)">
                <path id="Path_3759" d="M1095.431 247.366a11.432 11.432 0 0 1 .174-2.929 5.784 5.784 0 0 1 .008 1.47 5.7 5.7 0 0 1-.182 1.459z" class="cls-16" transform="translate(-1095.39 -244.437)"/>
            </g>
            <g id="Group_2285" transform="translate(79.407 73.17)">
                <path id="Path_3760" d="M1093.518 261.309a9.009 9.009 0 0 1 .917-2.435 9.009 9.009 0 0 1-.917 2.435z" class="cls-16" transform="translate(-1093.509 -258.874)"/>
            </g>
            <g id="Group_2286" transform="translate(83.122 73.67)">
                <path id="Path_3761" d="M1096.946 261.7a7.9 7.9 0 1 1 .38-1.16 3.978 3.978 0 0 1-.38 1.16z" class="cls-16" transform="translate(-1096.932 -259.334)"/>
            </g>
            <g id="Group_2287" transform="translate(76.81 83.909)">
                <path id="Path_3762" d="M1091.8 270.645a2.2 2.2 0 0 1-.645-1.879c.055 0 .1.444.278.955s.416.892.367.924z" class="cls-16" transform="translate(-1091.116 -268.766)"/>
            </g>
            <g id="Group_2288" transform="translate(88.405 53.876)">
                <path id="Path_3763" d="M1101.949 243.61a4.187 4.187 0 0 1 .09-2.51 281 281 0 0 0-.09 2.51z" class="cls-16" transform="translate(-1101.798 -241.1)"/>
            </g>
            <g id="Group_2289" transform="translate(84.529 53.377)">
                <path id="Path_3764" d="M1100.041 241.144a4.654 4.654 0 0 1-1.813-.486 4.7 4.7 0 0 1 1.813.486z" class="cls-16" transform="translate(-1098.228 -240.641)"/>
            </g>
            <g id="Group_2290" transform="translate(86.673 47.881)">
                <path id="Path_3765" d="M1100.278 238.227a9.277 9.277 0 1 1 .117-1.322 4.649 4.649 0 0 1-.117 1.322z" class="cls-16" transform="translate(-1100.203 -235.578)"/>
            </g>
            <g id="Group_2291" transform="translate(82.793 48.646)">
                <path id="Path_3766" d="M1098.709 236.5a5.8 5.8 0 0 1-2.081-.176 5.8 5.8 0 0 1 2.081.176z" class="cls-16" transform="translate(-1096.628 -236.282)"/>
            </g>
            <g id="Group_2292" transform="translate(83.157 43.423)">
                <path id="Path_3767" d="M1097.152 233.352a4.77 4.77 0 1 1 .024-.948 2.435 2.435 0 0 1-.024.948z" class="cls-16" transform="translate(-1096.964 -231.471)"/>
            </g>
            <g id="Group_2293" transform="translate(84.82 60.413)">
                <path id="Path_3768" d="M1099.822 248.868a6.425 6.425 0 0 1-1.322-1.743 6.33 6.33 0 0 1 1.322 1.743z" class="cls-16" transform="translate(-1098.495 -247.122)"/>
            </g>
            <g id="Group_2294" transform="translate(87.828 62.582)">
                <path id="Path_3769" d="M1101.307 251.284a6.225 6.225 0 1 1 .186-1.074 3.182 3.182 0 0 1-.186 1.074z" class="cls-16" transform="translate(-1101.267 -249.12)"/>
            </g>
            <g id="Group_2295" transform="translate(89.062 66.389)">
                <path id="Path_3770" d="M1104.146 252.663a4.141 4.141 0 0 1-1.742.211 4.1 4.1 0 0 1 1.742-.211z" class="cls-16" transform="translate(-1102.403 -252.627)"/>
            </g>
            <g id="Group_2296" transform="translate(91.618 68.505)">
                <path id="Path_3771" d="M1105.327 254.577a2.113 2.113 0 0 1-.188.866 2.15 2.15 0 0 1-.367.807 2.111 2.111 0 0 1 .188-.866 2.133 2.133 0 0 1 .367-.807z" class="cls-16" transform="translate(-1104.758 -254.576)"/>
            </g>
            <g id="Group_2297" transform="translate(94.003 71.642)">
                <path id="Path_3772" d="M1107.381 257.469c.043.034-.138.321-.213.719s-.022.732-.075.746a.909.909 0 0 1-.111-.783c.086-.451.364-.718.399-.682z" class="cls-16" transform="translate(-1106.955 -257.466)"/>
            </g>
            <g id="Group_2298" transform="translate(92.963 66.376)">
                <path id="Path_3773" d="M1108.3 252.727a8.052 8.052 0 0 1-1.151.1 8.219 8.219 0 0 1-1.149.114 3.449 3.449 0 0 1 2.3-.21z" class="cls-16" transform="translate(-1105.997 -252.615)"/>
            </g>
            <g id="Group_2299" transform="translate(97.368 65.581)">
                <path id="Path_3774" d="M1110.4 251.883a67.87 67.87 0 0 0-.239 2.3 3.439 3.439 0 0 1 .239-2.3z" class="cls-16" transform="translate(-1110.054 -251.883)"/>
            </g>
            <g id="Group_2300" transform="translate(91.797 58.611)">
                <path id="Path_3775" d="M1104.952 248.319a10.912 10.912 0 0 1 .269-2.857 10.9 10.9 0 0 1-.269 2.857z" class="cls-16" transform="translate(-1104.922 -245.462)"/>
            </g>
            <g id="Group_2301" transform="translate(88.569 58.472)">
                <path id="Path_3776" d="M1103.827 245.725a4.887 4.887 0 0 1-1.878-.368 4.883 4.883 0 0 1 1.878.368z" class="cls-16" transform="translate(-1101.949 -245.334)"/>
            </g>
            <g id="Group_2302" transform="translate(91.337 52.549)">
                <path id="Path_3777" d="M1104.805 242.317a3.533 3.533 0 0 1-.157-2.439 25.9 25.9 0 0 0 .157 2.439z" class="cls-16" transform="translate(-1104.499 -239.878)"/>
            </g>
            <g id="Group_2303" transform="translate(88.851 50.978)">
                <path id="Path_3778" d="M1103.324 238.619c-.007.052-.262.062-.57.024s-.552-.113-.545-.165.262-.063.569-.024.552.113.546.165z" class="cls-16" transform="translate(-1102.209 -238.43)"/>
            </g>
            <g id="Group_2304" transform="translate(93.518 57.355)">
                <path id="Path_3779" d="M1107.975 245.145a1.318 1.318 0 0 1-.829-.248c-.423-.24-.671-.555-.634-.588s.33.2.727.424.749.359.736.412z" class="cls-16" transform="translate(-1106.508 -244.305)"/>
            </g>
            <g id="Group_2305" transform="translate(95.01 62.114)">
                <path id="Path_3780" d="M1109.681 248.7a2.788 2.788 0 0 1-.855.55 2.824 2.824 0 0 1-.942.382 2.753 2.753 0 0 1 .855-.55 2.787 2.787 0 0 1 .942-.382z" class="cls-16" transform="translate(-1107.882 -248.689)"/>
            </g>
            <path id="Path_3781" d="M1077.487 224.433l.276-3.083 6.135 4.792 1.533 2.475 2.745-6.4.673.89v3.879l-2.966 3.61-5.6-.488z" class="cls-15" transform="translate(-1015.473 -188.914)"/>
            <g id="Group_2306" transform="translate(61.793 35.422)">
                <path id="Path_3782" d="M1083.657 226.286a1.714 1.714 0 0 1 0 .376l-.07 1.04-.3 3.59-.018.22-.14-.169-1.362-1.651c-1.257-1.527-2.386-2.917-3.2-3.929l-.951-1.2a3.292 3.292 0 0 1-.329-.457 3.124 3.124 0 0 1 .386.411l1 1.166c.836.99 1.981 2.365 3.236 3.892l1.356 1.655-.16.05c.148-1.426.275-2.663.369-3.585l.123-1.035a1.76 1.76 0 0 1 .06-.374z" class="cls-17" transform="translate(-1077.284 -224.101)"/>
            </g>
            <g id="Group_2307" transform="translate(72.083 35.71)">
                <path id="Path_3783" d="M1087.978 226.56a2.624 2.624 0 0 1-.032.62c-.038.388-.1.934-.187 1.572l-.051.4-.122-.385c-.106-.335-.214-.706-.312-1.1a18.771 18.771 0 0 1-.44-2.324 4.068 4.068 0 0 1-.06-.979 6.636 6.636 0 0 1 .192.959c.105.593.265 1.409.49 2.3.1.386.2.756.3 1.09l-.174.014c.1-.636.185-1.179.254-1.562a2.518 2.518 0 0 1 .142-.605z" class="cls-17" transform="translate(-1086.763 -224.366)"/>
            </g>
            <g id="Group_2308" transform="translate(69.974 39.545)">
                <path id="Path_3784" d="M1087.742 247.233a.928.928 0 0 1-.047-.194l-.1-.561c-.081-.516-.193-1.216-.329-2.069l-1.016-6.838-1.017-6.837-.315-2.071c-.033-.228-.06-.414-.08-.564a.837.837 0 0 1-.016-.2.761.761 0 0 1 .053.192l.116.558c.1.486.225 1.191.375 2.063.3 1.743.681 4.159 1.073 6.831s.726 5.092.961 6.846c.112.858.2 1.56.269 2.078l.065.567a.8.8 0 0 1 .008.199z" class="cls-17" transform="translate(-1084.82 -227.899)"/>
            </g>
            <g id="Group_2309" transform="translate(66.981 40.493)">
                <path id="Path_3785" d="M1082.391 228.785c.032.043-.037.148-.1.274s-.121.239-.175.236-.081-.162.009-.327.237-.225.266-.183z" class="cls-17" transform="translate(-1082.063 -228.772)"/>
            </g>
            <g id="Group_2310" transform="translate(72.865 37.826)">
                <path id="Path_3786" d="M1087.568 226.944c-.052 0-.09-.143-.085-.317s.052-.314.1-.312.09.143.086.317-.049.313-.101.312z" class="cls-17" transform="translate(-1087.483 -226.315)"/>
            </g>
            <g id="Group_2311" transform="translate(69.97 35.92)">
                <path id="Path_3787" d="M1086.961 224.56a8.906 8.906 0 0 1-2.143 3.654c-.043-.036.541-.786 1.129-1.793s.961-1.882 1.014-1.861z" class="cls-17" transform="translate(-1084.816 -224.56)"/>
            </g>
            <g id="Group_2312" transform="translate(68.135 37.763)">
                <path id="Path_3788" d="M1085.081 228.3a4.608 4.608 0 0 1-1.067-.936 4.655 4.655 0 0 1-.886-1.109 15.828 15.828 0 0 1 1.953 2.045z" class="cls-17" transform="translate(-1083.126 -226.257)"/>
            </g>
            <g id="Group_2313" transform="translate(71.511 44.913)">
                <path id="Path_3789" d="M1086.421 233.352c-.045.036-.152-.081-.173-.232s-.017-.241.024-.271.143.093.162.237.028.235-.013.266z" class="cls-17" transform="translate(-1086.235 -232.843)"/>
            </g>
            <g id="Group_2314" transform="translate(72.141 48.583)">
                <path id="Path_3790" d="M1086.928 236.73c-.052 0-.091-.111-.107-.243s.015-.259.067-.263.1.1.121.241-.029.266-.081.265z" class="cls-17" transform="translate(-1086.816 -236.224)"/>
            </g>
            <g id="Group_2315" transform="translate(70.543 13.777)">
                <path id="Path_3791" d="M1085.345 212.355a.928.928 0 0 0 .274.254.775.775 0 0 0 .915-.153 1.291 1.291 0 0 0 .332-.6 2.7 2.7 0 0 0 .057-.813l-.128-1.925c-.088-1.367-.156-2.605-.2-3.5-.02-.448-.033-.811-.037-1.063a1.5 1.5 0 0 1 .012-.391 1.615 1.615 0 0 1 .062.386c.027.25.06.611.1 1.06.074.895.164 2.132.251 3.5l.114 1.93a2.8 2.8 0 0 1-.08.861 1.415 1.415 0 0 1-.392.656.892.892 0 0 1-.585.245.808.808 0 0 1-.459-.127c-.224-.155-.242-.325-.236-.32z" class="cls-18" transform="translate(-1085.344 -204.162)"/>
            </g>
            <g id="Group_2316" transform="translate(68.014 22.33)">
                <path id="Path_3792" d="M1086.563 214.106a1.311 1.311 0 0 1-.661.259 2.46 2.46 0 0 1-2.774-1.621 1.3 1.3 0 0 1-.1-.7c.033 0 .055.267.224.655a2.521 2.521 0 0 0 2.629 1.537c.419-.048.669-.161.682-.13z" class="cls-18" transform="translate(-1083.014 -212.041)"/>
            </g>
            <g id="Group_2317" transform="translate(67.326 22.07)">
                <path id="Path_3793" d="M1083.508 211.91c-.015.05-.322-.014-.635.17s-.422.468-.473.455c-.023 0-.034-.092.019-.224a.86.86 0 0 1 .889-.5c.138.021.209.077.2.099z" class="cls-18" transform="translate(-1082.381 -211.801)"/>
            </g>
            <g id="Group_2318" transform="translate(62.709 28.941)">
                <path id="Path_3794" d="M1088.5 219.593a1.786 1.786 0 0 1-.378.232 7.545 7.545 0 0 1-1.112.472 8.594 8.594 0 0 1-7.648-1.077 7.576 7.576 0 0 1-.938-.762 1.782 1.782 0 0 1-.3-.327c.025-.027.465.428 1.311.977a8.952 8.952 0 0 0 7.532 1.061c.97-.292 1.518-.609 1.533-.576z" class="cls-18" transform="translate(-1078.128 -218.131)"/>
            </g>
            <g id="Group_2319" transform="translate(57.905 19.539)">
                <path id="Path_3795" d="M1074.6 212.008a1.246 1.246 0 0 0 .389-.53 1.01 1.01 0 0 0-.017-.683.6.6 0 0 0-.617-.408.372.372 0 0 0-.294.516l-.163.061a7.964 7.964 0 0 1-.186-1.494 7.966 7.966 0 0 1 .359 1.461l.1.485-.26-.424a.548.548 0 0 1 .418-.792.719.719 0 0 1 .521.136.857.857 0 0 1 .287.4 1.1 1.1 0 0 1-.021.794.9.9 0 0 1-.331.414c-.11.063-.185.074-.185.064z" class="cls-18" transform="translate(-1073.702 -209.47)"/>
            </g>
            <g id="Group_2320" transform="translate(67.25 14.955)">
                <path id="Path_3796" d="M1082.507 207.1c-.1 0-.192-.414-.2-.925s.078-.927.182-.928.192.414.2.925-.077.928-.182.928z" class="cls-9" transform="translate(-1082.31 -205.247)"/>
            </g>
            <g id="Group_2321" transform="translate(75.135 14.869)">
                <path id="Path_3797" d="M1089.782 206.719c-.105 0-.2-.343-.207-.771s.066-.778.172-.781.2.343.207.772-.067.778-.172.78z" class="cls-9" transform="translate(-1089.574 -205.168)"/>
            </g>
            <path id="Path_3798" d="M1075.877 208.92a2.778 2.778 0 0 0-.157 1.933c.258.609 1.22.9 1.578.348a1.379 1.379 0 0 0 .15-.751l.045-5.336a7.011 7.011 0 0 0 5.428-5.016 4.714 4.714 0 0 0 4.555.152 3.244 3.244 0 0 1 1.813-.658c.779.105 1.239.909 1.879 1.366a2.419 2.419 0 0 0 3.457-.949 3.043 3.043 0 0 0-1.412-3.615c-1.523-.923-3.442-.744-5.211-.535l-9.8 1.158a3.441 3.441 0 0 0-1.78.554 3.224 3.224 0 0 0-.927 1.674 24.2 24.2 0 0 0-1 7.58 2.344 2.344 0 0 0 .842 2.083" class="cls-3" transform="translate(-1015.73 -191.109)"/>
            <g id="Group_2322" transform="translate(65.853 12.843)">
                <path id="Path_3799" d="M1083.7 203.577c.05.256-.508.58-1.245.722s-1.375.049-1.424-.208.508-.58 1.245-.722 1.37-.05 1.424.208z" class="cls-3" transform="translate(-1081.023 -203.302)"/>
            </g>
            <g id="Group_2323" transform="translate(74.188 12.45)">
                <path id="Path_3800" d="M1090.808 203.495c-.018.261-.506.439-1.088.4s-1.038-.289-1.018-.55.506-.437 1.088-.4 1.038.289 1.018.55z" class="cls-3" transform="translate(-1088.702 -202.939)"/>
            </g>
            <g id="Group_2324" class="cls-19" transform="translate(64.133 12.121)">
                <path id="Path_3801" d="M1083.284 202.651a3.524 3.524 0 1 1-3.83 3.188 3.523 3.523 0 0 1 3.83-3.188z" class="cls-20" transform="translate(-1079.439 -202.636)"/>
            </g>
            <g id="Group_2325" class="cls-19" transform="translate(72.771 11.795)">
                <path id="Path_3802" d="M1091.241 202.351a3.524 3.524 0 1 1-3.83 3.189 3.524 3.524 0 0 1 3.83-3.189z" class="cls-20" transform="translate(-1087.396 -202.336)"/>
            </g>
            <g id="Group_2326" transform="translate(71.027 15.891)">
                <path id="Path_3803" fill="#635252" d="M1087.452 206.2a3.7 3.7 0 0 1-1.662 0 3.7 3.7 0 0 1 1.662 0z" transform="translate(-1085.79 -206.109)"/>
            </g>
            <g id="Group_2327" transform="translate(80.623 80.186)">
                <path id="Path_3804" d="M1098.97 272.074a6.411 6.411 0 0 1-.752-.906c-.439-.579-1.022-1.4-1.623-2.33s-1.1-1.8-1.449-2.441a6.57 6.57 0 0 1-.515-1.059 8.06 8.06 0 0 1 .631.992c.375.621.895 1.476 1.493 2.406s1.161 1.758 1.573 2.355a8.228 8.228 0 0 1 .642.983z" class="cls-18" transform="translate(-1094.63 -265.337)"/>
            </g>
            <g id="Group_2328" transform="translate(79.426 82.18)">
                <path id="Path_3805" d="M1098.473 271.872a.721.721 0 0 1-.276-.028 2.829 2.829 0 0 1-.706-.27 6.5 6.5 0 0 1-1.831-1.655c-.611-.741-1.153-1.419-1.538-1.916a5.432 5.432 0 0 1-.594-.828 5.428 5.428 0 0 1 .7.744c.412.474.971 1.14 1.58 1.879a7.329 7.329 0 0 0 1.753 1.661 6.684 6.684 0 0 0 .912.413z" class="cls-18" transform="translate(-1093.527 -267.173)"/>
            </g>
            <path id="Path_3806" d="M1104.073 275.44l9.506-23.9 31.865.583-8.962 22.652-32.409.664" class="cls-4" transform="translate(-1013.198 -186.331)"/>
            <path id="Path_3807" fill="#968abc" d="M1114.951 251.566l-9.737 23.872 31.17-.664 8.962-22.652z" transform="translate(-1013.101 -186.329)"/>
            <ellipse id="Ellipse_75" cx="2.17" cy="1.761" fill="#d7d1e8" rx="2.17" ry="1.761" transform="rotate(-45 148.694 -94.73)"/>
            <path id="Path_3808" fill="#d7d1e8" d="M1123.112 260.838c1.331-1.331 3.285-1.534 4.364-.455s.876 3.033-.455 4.364-3.284 1.534-4.363.455-.876-3.033.454-4.364z" opacity="0.19" transform="translate(-1011.667 -185.634)"/>
            <g id="Group_2329" class="cls-1" transform="translate(26.186 3.953)">
                <path id="Path_3809" d="M1051.254 195.794a10.853 10.853 0 1 1-1.4.672" class="cls-2" transform="translate(-1044.484 -195.112)"/>
            </g>
        </g>
        <path id="Path_3810" fill="none" stroke="#6e3281" stroke-miterlimit="10" stroke-width="0.15px" d="M1121.5 240.033a3.516 3.516 0 0 1 4.441-4.585c.859.3 1.581.926 2.453 1.182a3.112 3.112 0 0 0 3.388-4.824" transform="translate(8.635 3.451)"/>
        <path id="Path_3811" fill="none" stroke="#edc483" stroke-miterlimit="10" stroke-width="0.15px" d="M1127.1 205.424a32.94 32.94 0 0 0 2.192 3.119c.177.225.4.468.689.447a.907.907 0 0 0 .437-.2l3.647-2.6-2.689-4.138-3.2 2.268" transform="translate(9.133 .905)"/>
        <path id="Path_3812" fill="none" stroke="#8aa9fc" stroke-miterlimit="10" stroke-width="0.15px" d="M1115.413 217.4a3.2 3.2 0 1 0 5.161 1.346c-.634-1.844-2.871-2.728-4.8-2.46" transform="translate(8.044 2.119)"/>
        <path id="Path_3813" fill="none" stroke="#e3707f" stroke-miterlimit="10" stroke-width="0.15px" d="M1145.495 228.744l-1.023 7.666 7.133-1.137a23.206 23.206 0 0 0-5.326-6.589" transform="translate(10.619 3.184)"/>
        <path id="Path_3814" d="M1138.921 224.035l.86-7.536" class="cls-29" transform="translate(10.144 2.142)"/>
        <path id="Path_3815" d="M1146.7 214.284l-.121-.122" class="cls-29" transform="translate(10.799 1.942)"/>
    </g>
</svg>
