<svg xmlns="http://www.w3.org/2000/svg" width="155.658" height="95.424" viewBox="0 0 155.658 95.424">
    <defs>
        <filter id="Path_3849" width="13.363" height="11.733" x="36.761" y="23.315" filterUnits="userSpaceOnUse">
            <feOffset dx="2" dy="2"/>
            <feGaussianBlur result="blur"/>
            <feFlood flood-color="#f3f4f6"/>
            <feComposite in2="blur" operator="in"/>
            <feComposite in="SourceGraphic"/>
        </filter>
        <filter id="Path_3854" width="13.363" height="11.733" x="36.761" y="38.485" filterUnits="userSpaceOnUse">
            <feOffset dx="2" dy="2"/>
            <feGaussianBlur result="blur-2"/>
            <feFlood flood-color="#f3f4f6"/>
            <feComposite in2="blur-2" operator="in"/>
            <feComposite in="SourceGraphic"/>
        </filter>
        <filter id="Path_3859" width="13.363" height="11.733" x="36.761" y="53.655" filterUnits="userSpaceOnUse">
            <feOffset dx="2" dy="2"/>
            <feGaussianBlur result="blur-3"/>
            <feFlood flood-color="#f3f4f6"/>
            <feComposite in2="blur-3" operator="in"/>
            <feComposite in="SourceGraphic"/>
        </filter>
        <filter id="Path_3864" width="13.363" height="11.733" x="36.761" y="68.825" filterUnits="userSpaceOnUse">
            <feOffset dx="2" dy="2"/>
            <feGaussianBlur result="blur-4"/>
            <feFlood flood-color="#f3f4f6"/>
            <feComposite in2="blur-4" operator="in"/>
            <feComposite in="SourceGraphic"/>
        </filter>
        <style>
            .cls-1{fill:#dce6ef}.cls-2{fill:#6aa5fe}.cls-13,.cls-14,.cls-7{fill:none}.cls-13{stroke:#1a55b5}.cls-7{stroke-linecap:round;stroke-linejoin:round}.cls-4{fill:#ffc957}.cls-6{fill:#1a55b5}.cls-7{stroke:#2a294f;stroke-width:.78px}.cls-9{fill:#527ee9}.cls-19{mix-blend-mode:multiply;isolation:isolate}.cls-13,.cls-14{stroke-miterlimit:10}.cls-14{stroke:#ff746f;stroke-width:4px}.cls-15{fill:#fe9280}.cls-16{fill:#e86767}.cls-17{fill:#ff746f}.cls-18{fill:#fff}.cls-19{fill:#777470;opacity:.2}.cls-21{fill:#2a294f}.cls-22{fill:#d3eaf5}
        </style>
    </defs>
    <g id="Group_2357" transform="translate(-7.394 -100.861)">
        <g id="Group_2341" transform="translate(73.141 137.49)">
            <path id="Path_3826" d="M291.685 258.908c-1.173-3.013-2.049-6.212-3.006-9.59-.645-2.277-1.685-4.824-3.939-5.541-2.193-.7-4.555.749-5.9 2.613s-2.029 4.125-3.183 6.117c-2.091 3.609-5.795 5.122-8.856 1.949-4.373-4.532-6.341-10.71-9.113-16.238-2.013-4.013-3.7-8.712-6.234-12.411-3.868-5.64-9.17-10.45-16.222-10.45-4.47.677-8.409 4.637-11.075 9.584s-4.22 10.832-5.545 16.7c-2.41 10.676-4.176 21.6-5.939 32.508l88.974-1.038c-.353 0-2.535-2.912-2.953-3.316a29.319 29.319 0 0 1-7.009-10.887z" class="cls-1" transform="translate(-212.669 -215.357)"/>
            <g id="Group_2339" transform="translate(49.591 27.413)">
                <path id="Path_3827" d="M380.217 322.269c-.174 3.459-3.938 9.505-7.4 9.331s-5.3-6.5-5.129-9.963 3.858-20.767 7.316-20.592 5.387 17.765 5.213 21.224z" class="cls-2" transform="translate(-367.681 -301.044)"/>
                <path id="Line_361" fill="none" stroke="#1a55b5" stroke-linecap="round" stroke-linejoin="round" stroke-width="0.867px" d="M1.744 0L0 28.029" transform="translate(5.417 2.25)"/>
                <path id="Path_3828" d="M378.053 340.658a24.037 24.037 0 0 0-1.75 5.437 4.556 4.556 0 0 0 .134 2.873 3.437 3.437 0 0 0 2.579 1.685c2.571.422 5.142-1.153 6.649-3.278a20.4 20.4 0 0 0 2.759-7.258 28.876 28.876 0 0 1 1.823-5.883c.381-.8 2.612-3.876 1.557-4.675-1.444-1.134-5.623.1-8.3 3.023a31.211 31.211 0 0 0-5.451 8.076z" class="cls-4" transform="translate(-373.433 -320.153)"/>
                <path id="Path_3829" fill="none" stroke="#6aa5fe" stroke-linecap="round" stroke-linejoin="round" stroke-width="0.867px" d="M385.133 355.96s3.1-12.084 10.6-19.014" transform="translate(-379.55 -325.46)"/>
            </g>
            <g id="Group_2340" transform="translate(62.271 43.432)">
                <path id="Path_3830" d="M425.149 352.752a3.039 3.039 0 0 1-1.216 1.055c-.557.314-1.151.59-1.725.857a19.852 19.852 0 0 0-2.2 1.139 7.424 7.424 0 0 0-1.35 1.076 17.089 17.089 0 0 1 2.141-3.64c1.094-1.409 2.218-2.122 3.34-2.122h.078a1.261 1.261 0 0 1 .8.256 1.144 1.144 0 0 1 .132 1.379z" class="cls-6" transform="translate(-415.028 -351.116)"/>
                <path id="Path_3831" d="M426.641 376.017a3.044 3.044 0 0 1-1.551.433c-.638.045-1.292.041-1.925.037a19.75 19.75 0 0 0-2.477.087 7.407 7.407 0 0 0-1.681.394 17.1 17.1 0 0 1 3.492-2.374c1.592-.8 2.913-.969 3.927-.489l.07.035a1.262 1.262 0 0 1 .617.575 1.145 1.145 0 0 1-.472 1.302z" class="cls-6" transform="translate(-415.267 -366.568)"/>
                <path id="Path_3832" d="M424.6 386.07a2.082 2.082 0 0 1-.974-.511c-.339-.276-.662-.586-.975-.884a13.542 13.542 0 0 0-1.273-1.118 5.086 5.086 0 0 0-1.021-.592 11.668 11.668 0 0 1 2.849.456 3.065 3.065 0 0 1 2.182 1.6l.019.05a.862.862 0 0 1 .037.575.782.782 0 0 1-.844.424z" class="cls-6" transform="translate(-416.187 -372.776)"/>
                <path id="Path_3833" d="M407.317 367.532s.036-7.394 9.065-13.671" class="cls-7" transform="translate(-407.317 -352.983)"/>
                <path id="Path_3834" d="M407.317 383.968a11.375 11.375 0 0 1 10.288-5.94" class="cls-7" transform="translate(-407.317 -369.418)"/>
                <path id="Path_3835" d="M420.1 383.192s1.455-.107 4.495 2.186" class="cls-7" transform="translate(-416.012 -372.93)"/>
            </g>
        </g>
        <g id="Group_2343" transform="translate(7.505 154.096)">
            <path id="Path_3836" d="M57.828 308.7c-2.087-7.889-4.186-15.782-6.64-23.422a56.266 56.266 0 0 0-5.031-12.046c-2.121-3.446-4.93-5.989-7.751-5.972-4.346.841-7.15 5.132-8.988 9.885-1.205 3.117-1.79 6.892-2.643 10.186-1.175 4.536-1.791 9.472-4.048 13.441-1.58 2.779-4.009 2.07-5.646-.426-.9-1.378-1.541-3.017-2.552-4.274s-2.607-2.077-3.891-1.284c-1.32.815-1.715 2.877-1.892 4.686-.264 2.684-.495 5.222-.927 7.655q-.141.794-.314 1.574z" class="cls-1" transform="translate(-7.505 -267.263)"/>
            <path id="Path_3837" d="M64.269 314.859c-1.3-1.5-2.954-2.8-3.475-4.7a11.688 11.688 0 0 1 .068-4.284 5.457 5.457 0 0 0-.829-4.113 5.443 5.443 0 0 0-3.125-1.55 11.55 11.55 0 0 1-3.395-1c-1.669-.957-1.337-2.585-2.233-4.013-1.006-1.6-3.345-3.646-5.35-2.582-2.124 1.127-1.787 4.548-.375 6.059.937 1 2.137 1.964 2.275 3.328.208 2.055-2.147 3.905-1.5 5.867.478 1.449 2.3 1.947 3.206 3.177a4.677 4.677 0 0 1 .187 4.338 33.06 33.06 0 0 0-1.679 4.2c-.669 3.015 1.7 5.1 4.392 5.771 2.477.617 7.819.326 7.819.326a10.219 10.219 0 0 0 5.068-4.171 5.3 5.3 0 0 0 .288-4.606 7.682 7.682 0 0 0-1.342-2.047z" class="cls-4" transform="translate(-32.609 -284.309)"/>
            <path id="Path_3838" fill="none" stroke="#6aa5fe" stroke-linecap="round" stroke-linejoin="round" d="M56.568 303.413s9.121 14.089 10.114 29.733" transform="translate(-40.872 -291.848)"/>
            <g id="Group_2342" transform="translate(6.117 30.374)">
                <path id="Path_3839" d="M30.694 362.4a.954.954 0 0 1 .607-.193h.059a3.392 3.392 0 0 1 2.526 1.6 12.923 12.923 0 0 1 1.618 2.753 5.617 5.617 0 0 0-1.021-.814 15.007 15.007 0 0 0-1.665-.861c-.434-.2-.883-.41-1.3-.648a2.3 2.3 0 0 1-.919-.8.865.865 0 0 1 .095-1.037z" class="cls-2" transform="translate(-29.239 -362.207)"/>
                <path id="Path_3840" d="M26.677 380.05a.954.954 0 0 1 .466-.434l.053-.026a3.391 3.391 0 0 1 2.969.37 12.937 12.937 0 0 1 2.641 1.8 5.618 5.618 0 0 0-1.271-.3 14.972 14.972 0 0 0-1.873-.066c-.478 0-.973.007-1.456-.028a2.3 2.3 0 0 1-1.172-.328.866.866 0 0 1-.357-.988z" class="cls-2" transform="translate(-26.625 -373.891)"/>
                <path id="Path_3841" d="M32.843 388.314a.652.652 0 0 1 .028-.434c0-.013.009-.025.014-.038a2.317 2.317 0 0 1 1.65-1.208 8.829 8.829 0 0 1 2.155-.345 3.823 3.823 0 0 0-.772.447 10.293 10.293 0 0 0-.963.845c-.236.226-.481.459-.737.669a1.572 1.572 0 0 1-.736.386.592.592 0 0 1-.639-.322z" class="cls-2" transform="translate(-30.836 -378.585)"/>
                <path id="Path_3842" d="M40.214 374.62s-.027-5.591-6.854-10.337" class="cls-7" transform="translate(-31.205 -363.619)"/>
                <path id="Path_3843" d="M38.247 387.047a8.6 8.6 0 0 0-7.779-4.491" class="cls-7" transform="translate(-29.239 -376.046)"/>
                <path id="Path_3844" d="M37.892 386.461s-1.1-.08-3.4 1.653" class="cls-7" transform="translate(-31.977 -378.701)"/>
            </g>
        </g>
        <g id="Group_2345" transform="translate(32.659 100.861)">
            <rect id="Rectangle_1840" width="66.241" height="87.673" class="cls-2" rx="9.449" transform="translate(0 6.938)"/>
            <path id="Path_3845" d="M86.131 189.31v63.29a3.023 3.023 0 0 0 3.023 3.023h60.2a3.023 3.023 0 0 0 3.023-3.023v-12.49z" class="cls-9" transform="translate(-86.131 -161.014)"/>
            <rect id="Rectangle_1841" width="58.544" height="79.582" fill="#f3f4f6" rx="3.862" transform="translate(3.849 10.983)"/>
            <g id="Group_2344" transform="translate(20.698)">
                <path id="Path_3846" d="M168.274 106.143c0-.083.012-.164.012-.248a5.034 5.034 0 1 0-10.068 0c0 .084.009.165.012.248h-7.4v7.674h24.844v-7.674z" class="cls-6" transform="translate(-150.83 -100.861)"/>
                <path id="Path_3847" fill="#2c6bc6" d="M150.83 117.372v7.674h24.845z" transform="translate(-150.83 -112.09)"/>
                <circle id="Ellipse_76" cx="2.827" cy="2.827" r="2.827" class="cls-9" transform="rotate(-22.628 13.142 -20.048)"/>
                <path id="Path_3848" d="M181.652 110.349a2.827 2.827 0 1 0 4 4z" class="cls-2" transform="translate(-171.228 -107.314)"/>
                <path id="Rectangle_1842" fill="#cde1f9" d="M0 0H24.845V0.529H0z" transform="translate(0 12.956)" style="mix-blend-mode:multiply;isolation:isolate"/>
            </g>
        </g>
        <g id="Group_2354" transform="translate(43.272 124.445)">
            <g id="Group_2347">
                <path id="Rectangle_1843" d="M0 0H9.423V9.423H0z" class="cls-13"/>
                <g filter="url(#Path_3849)" transform="translate(-35.88 -23.58)">
                    <path id="Path_3849-2" d="M125.926 181.625l2.882 2.262 5.859-5.645" class="cls-14" transform="translate(-87.93 -153.49)"/>
                </g>
                <g id="Group_2346" transform="translate(13.584 1.949)">
                    <path id="Path_3850" d="M192.834 181.4h-30.705a.363.363 0 0 1-.362-.363.362.362 0 0 1 .362-.362h30.705a.362.362 0 0 1 .363.362.363.363 0 0 1-.363.363z" class="cls-2" transform="translate(-161.767 -180.675)"/>
                    <path id="Path_3851" d="M192.834 186.4h-30.705a.363.363 0 0 1-.362-.363.362.362 0 0 1 .362-.362h30.705a.362.362 0 0 1 .363.362.363.363 0 0 1-.363.363z" class="cls-2" transform="translate(-161.767 -184.075)"/>
                    <path id="Path_3852" d="M192.834 191.4h-30.705a.362.362 0 0 1-.362-.362.362.362 0 0 1 .362-.363h30.705a.362.362 0 0 1 .363.363.362.362 0 0 1-.363.362z" class="cls-2" transform="translate(-161.767 -187.476)"/>
                    <path id="Path_3853" d="M192.834 196.4h-30.705a.363.363 0 0 1-.362-.363.363.363 0 0 1 .362-.363h30.705a.363.363 0 0 1 .363.363.363.363 0 0 1-.363.363z" class="cls-2" transform="translate(-161.767 -190.876)"/>
                </g>
            </g>
            <g id="Group_2349" transform="translate(0 15.17)">
                <path id="Rectangle_1844" d="M0 0H9.423V9.423H0z" class="cls-13"/>
                <g filter="url(#Path_3854)" transform="translate(-35.88 -38.75)">
                    <path id="Path_3854-2" d="M125.926 229.043l2.882 2.262 5.859-5.645" class="cls-14" transform="translate(-87.93 -185.74)"/>
                </g>
                <g id="Group_2348" transform="translate(13.584 1.949)">
                    <path id="Path_3855" d="M192.834 228.818h-30.705a.362.362 0 0 1-.362-.362.363.363 0 0 1 .362-.363h30.705a.363.363 0 0 1 .363.363.362.362 0 0 1-.363.362z" class="cls-2" transform="translate(-161.767 -228.093)"/>
                    <path id="Path_3856" d="M192.834 233.819h-30.705a.363.363 0 0 1-.362-.363.363.363 0 0 1 .362-.363h30.705a.363.363 0 0 1 .363.363.363.363 0 0 1-.363.363z" class="cls-2" transform="translate(-161.767 -231.493)"/>
                    <path id="Path_3857" d="M192.834 238.819h-30.705a.363.363 0 0 1-.362-.363.363.363 0 0 1 .362-.363h30.705a.363.363 0 0 1 .363.363.363.363 0 0 1-.363.363z" class="cls-2" transform="translate(-161.767 -234.894)"/>
                    <path id="Path_3858" d="M192.834 243.819h-30.705a.362.362 0 0 1-.362-.363.362.362 0 0 1 .362-.362h30.705a.362.362 0 0 1 .363.362.362.362 0 0 1-.363.363z" class="cls-2" transform="translate(-161.767 -238.295)"/>
                </g>
            </g>
            <g id="Group_2351" transform="translate(0 30.34)">
                <path id="Rectangle_1845" d="M0 0H9.423V9.423H0z" class="cls-13"/>
                <g filter="url(#Path_3859)" transform="translate(-35.88 -53.92)">
                    <path id="Path_3859-2" d="M125.926 276.462l2.882 2.262 5.859-5.645" class="cls-14" transform="translate(-87.93 -217.98)"/>
                </g>
                <g id="Group_2350" transform="translate(13.584 1.949)">
                    <path id="Path_3860" d="M192.834 276.237h-30.705a.363.363 0 0 1-.362-.363.363.363 0 0 1 .362-.363h30.705a.363.363 0 0 1 .363.363.363.363 0 0 1-.363.363z" class="cls-2" transform="translate(-161.767 -275.511)"/>
                    <path id="Path_3861" d="M192.834 281.237h-30.705a.363.363 0 0 1-.362-.363.362.362 0 0 1 .362-.362h30.705a.362.362 0 0 1 .363.362.363.363 0 0 1-.363.363z" class="cls-2" transform="translate(-161.767 -278.912)"/>
                    <path id="Path_3862" d="M192.834 286.237h-30.705a.362.362 0 0 1-.362-.363.363.363 0 0 1 .362-.363h30.705a.363.363 0 0 1 .363.363.362.362 0 0 1-.363.363z" class="cls-2" transform="translate(-161.767 -282.312)"/>
                    <path id="Path_3863" d="M192.834 291.237h-30.705a.362.362 0 0 1-.362-.362.363.363 0 0 1 .362-.363h30.705a.363.363 0 0 1 .363.363.362.362 0 0 1-.363.362z" class="cls-2" transform="translate(-161.767 -285.713)"/>
                </g>
            </g>
            <g id="Group_2353" transform="translate(0 45.51)">
                <path id="Rectangle_1846" d="M0 0H9.423V9.423H0z" class="cls-13"/>
                <g filter="url(#Path_3864)" transform="translate(-35.88 -69.09)">
                    <path id="Path_3864-2" d="M125.926 323.88l2.882 2.262 5.859-5.645" class="cls-14" transform="translate(-87.93 -250.23)"/>
                </g>
                <g id="Group_2352" transform="translate(13.584 1.949)">
                    <path id="Path_3865" d="M192.834 323.655h-30.705a.362.362 0 0 1-.362-.362.363.363 0 0 1 .362-.363h30.705a.363.363 0 0 1 .363.363.362.362 0 0 1-.363.362z" class="cls-2" transform="translate(-161.767 -322.93)"/>
                    <path id="Path_3866" d="M192.834 328.656h-30.705a.363.363 0 0 1-.362-.363.363.363 0 0 1 .362-.363h30.705a.363.363 0 0 1 .363.363.363.363 0 0 1-.363.363z" class="cls-2" transform="translate(-161.767 -326.33)"/>
                    <path id="Path_3867" d="M192.834 333.656h-30.705a.363.363 0 0 1-.362-.363.363.363 0 0 1 .362-.363h30.705a.363.363 0 0 1 .363.363.363.363 0 0 1-.363.363z" class="cls-2" transform="translate(-161.767 -329.731)"/>
                    <path id="Path_3868" d="M192.834 338.656h-30.705a.363.363 0 0 1-.362-.363.362.362 0 0 1 .362-.362h30.705a.362.362 0 0 1 .363.362.363.363 0 0 1-.363.363z" class="cls-2" transform="translate(-161.767 -333.132)"/>
                </g>
            </g>
        </g>
        <g id="Group_2356" transform="translate(76.166 127.994)">
            <path id="Path_3869" d="M294.73 195.05c-.2.15-1.972 1.2-1.972 1.2l-1.26-1.614.375-1.84 2.713.169.475 1.373c.112.326-.089.527-.331.712z" class="cls-15" transform="translate(-269.305 -190.517)"/>
            <path id="Path_3870" d="M295.947 193.013l.409 1.2-1.251.5a1.148 1.148 0 0 1-1.6-1.192l.081-.662z" class="cls-16" transform="translate(-270.667 -190.566)"/>
            <path id="Path_3871" d="M299.229 195.241l1.085.158.594-1.018a.394.394 0 0 0-.123-.543.393.393 0 0 0-.543.123z" class="cls-17" transform="translate(-274.563 -191.185)"/>
            <path id="Path_3872" d="M290.208 211.954l-2.236.565-.8 6.475 2.618.107z" class="cls-18" transform="translate(-266.363 -203.547)"/>
            <g id="Group_2355" transform="translate(0 .655)">
                <path id="Path_3873" d="M380.253 212.231l-3.909-.492.895-7.107 3.909.492a3.581 3.581 0 0 1 3.106 4 3.581 3.581 0 0 1-4.001 3.107z" class="cls-15" transform="translate(-327.007 -199.222)"/>
                <path id="Path_3874" d="M380.457 218.417l-3.909-.492-.2 1.619 3.909.492a3.579 3.579 0 0 0 4.009-3.927 3.582 3.582 0 0 1-3.809 2.308z" class="cls-19" transform="translate(-327.007 -207.028)"/>
                <path id="Path_3875" d="M286.694 200.179l-41.472-5.35.895-7.107 41.472 5.35z" class="cls-4" transform="translate(-237.834 -187.722)"/>
                <path id="Path_3876" fill="#fff4dd" d="M222.128 190.289l7.388 4.54.895-7.107z" transform="translate(-222.128 -187.722)"/>
                <path id="Path_3877" d="M222.128 195.746l7.388 4.54.219-1.738z" class="cls-19" transform="translate(-222.128 -193.179)"/>
                <path id="Path_3878" d="M224.594 193.356l-2.467.764 2.2 1.352z" class="cls-21" transform="translate(-222.128 -191.554)"/>
                <path id="Rectangle_1847" d="M0 0H3.46V7.163H0z" class="cls-22" transform="rotate(7.175 -17.789 399.473)"/>
                <path id="Rectangle_1848" d="M0 0H1.183V7.776H0z" class="cls-22" transform="rotate(7.175 -16.48 417.79)"/>
                <path id="Path_3879" d="M288.953 211.875l-43.731-5.634.219-1.738 43.731 5.634z" class="cls-19" transform="translate(-237.834 -199.135)"/>
                <path id="Path_3880" fill="#777470" d="M291.066 195.095l-43.731-5.634.219-1.738 43.731 5.634z" transform="translate(-239.27 -187.722)" style="mix-blend-mode:multiply;isolation:isolate" opacity="0.05"/>
                <path id="Rectangle_1849" fill="#777470" d="M0 0H1.183V2.377H0z" opacity="0.15" transform="rotate(7.175 -59.54 415.085)" style="mix-blend-mode:multiply;isolation:isolate"/>
            </g>
            <path id="Path_3881" d="M332.325 268.085l.589-1.514 1.974-.154a.62.62 0 0 1 .719.492.62.62 0 0 1-.6.634z" class="cls-16" transform="translate(-297.071 -240.583)"/>
            <path id="Path_3882" d="M328.681 262.439l1.017 1.507 1.937-.391-2.158-3.229-.418.275a1.327 1.327 0 0 0-.378 1.838z" class="cls-17" transform="translate(-294.443 -236.444)"/>
            <path id="Path_3883" d="M310.732 187.4c-2.011-2.932-7.077-2.15-6.945 2.548v.042a7.179 7.179 0 0 1-.148 1.762 1.429 1.429 0 0 1-1.172 1.1c-.283.063-.587.078-.9.141a2.913 2.913 0 0 0-.9.346 2.762 2.762 0 0 0-1.226 1.492 3.654 3.654 0 0 0 .865 3.649 2.98 2.98 0 0 0 .815.569 3.782 3.782 0 0 0 .923.258c.585.128 1.176.3 1.78.415l.017-.052a18.427 18.427 0 0 0-1.693-.729 4.026 4.026 0 0 1-.808-.318 2.634 2.634 0 0 1-.642-.521 3.715 3.715 0 0 1-.8-1.467 3.09 3.09 0 0 1-.033-1.671 2.346 2.346 0 0 1 .992-1.316 2.566 2.566 0 0 1 .782-.34c.281-.07.588-.1.9-.182a1.648 1.648 0 0 0 1.271-1.336 3.817 3.817 0 0 0 .073-.655c.055.876-.021 1.765-.922 2.1a6.39 6.39 0 0 0-1.507.516 2.627 2.627 0 0 0-1.031 1.323 3.31 3.31 0 0 0 2.637 3.994c.716.076 1.432.249 2.14.376.2.036 2.983.606 3.005.539l3.222-9.536z" class="cls-6" transform="translate(-274.59 -185.675)"/>
            <path id="Path_3884" d="M332.59 249.743l6.532-4.558-.912-2.524-6.576 5.651z" class="cls-18" transform="translate(-296.601 -224.43)"/>
            <path id="Path_3885" d="M349.321 244.623a1.31 1.31 0 1 0 .624-1.744 1.31 1.31 0 0 0-.624 1.744z" class="cls-18" transform="translate(-308.544 -224.492)"/>
            <path id="Path_3886" d="M336.674 231.851l1.862-1.843-5.379-6.048a1.685 1.685 0 0 0-2.539-.194 2.705 2.705 0 0 0 .167 3.346z" class="cls-18" transform="translate(-295.57 -211.248)"/>
            <path id="Rectangle_1850" d="M0 0H2.21V4.63H0z" class="cls-17" transform="rotate(-175.159 17.364 5.492)"/>
            <path id="Path_3887" d="M288.228 230.891a1.31 1.31 0 1 0 1.395 1.22 1.31 1.31 0 0 0-1.395-1.22z" class="cls-18" transform="translate(-266.25 -216.423)"/>
            <path id="Path_3888" d="M288.249 222.729l1.327 2.358 8.111-2.359c.994-.253 1.533-2.134 1.141-3.082a1.685 1.685 0 0 0-2.415-.807z" class="cls-18" transform="translate(-267.096 -208.069)"/>
            <path id="Path_3889" d="M312.987 231.914l4.1-10.072a1.426 1.426 0 0 0-1.191-1.76l-5.892-1.336a1.425 1.425 0 0 0-1.617 1.379l-2.017 10.983z" class="cls-18" transform="translate(-279.423 -208.157)"/>
            <path id="Path_3890" d="M319.7 192.745c-.68.861-1.9 1.223-2.192 2.012l-.061.364v.051l-.007-.012-.186 1.1a2.568 2.568 0 0 0 5.064.855l.21-1.244c-.149-1.26-2.462-1.358-2.828-3.126z" class="cls-17" transform="translate(-286.794 -190.483)"/>
            <path id="Path_3891" d="M332.3 203.522a.6.6 0 1 0 .687-.488.6.6 0 0 0-.687.488z" class="cls-17" transform="translate(-297.049 -197.474)"/>
            <path id="Path_3892" d="M305.694 257.769l2.953 7.291-2.822 34.062h-2.167l-2.553-34.274 1.686-7.432z" class="cls-6" transform="translate(-275.839 -234.464)"/>
            <path id="Path_3893" d="M315.45 258.521v7.291l13.293 34.062h1.63l-7.112-35.348-4.1-5.553z" class="cls-9" transform="translate(-285.595 -235.216)"/>
            <path id="Path_3894" d="M310.955 389.56h-.906v-1.778h1.175z" class="cls-17" transform="translate(-281.921 -323.124)"/>
            <path id="Path_3895" d="M304.354 392.082l.53.233.493-.233.442 1.443h-4.1l1.541-.721z" class="cls-21" transform="translate(-276.257 -326.049)"/>
            <path id="Path_3896" d="M358.645 389.56h.906l-.537-1.778h-1.175z" class="cls-17" transform="translate(-314.423 -323.124)"/>
            <path id="Path_3897" d="M360.172 392.082l-.53.233-.493-.233-.442 1.443h4.1l-1.541-.721z" class="cls-21" transform="translate(-315.013 -326.049)"/>
            <path id="Path_3898" d="M310.949 231.987a1.86 1.86 0 1 1-1.86-1.86 1.86 1.86 0 0 1 1.86 1.86z" class="cls-18" transform="translate(-280.004 -215.906)"/>
            <path id="Path_3899" d="M318.264 218.929l.235 3.995 3.452-3.517z" class="cls-17" transform="translate(-287.508 -208.29)"/>
            <path id="Path_3900" d="M329.073 190.08a3.317 3.317 0 0 0-1.055-.891c-.649-.341-1.382-.3-1.977-.817l.465 4.688c.854-.244.8 1.6-.183 1.087a5.549 5.549 0 0 0-2.7 2.667 7.1 7.1 0 0 0-.46 3.485 2.156 2.156 0 0 0 2.9 1.8 3.881 3.881 0 0 0 2.021-1.634c1.711-2.586 2.851-6.833 1.388-9.751a3.738 3.738 0 0 0-.399-.634z" class="cls-6" transform="translate(-290.802 -187.509)"/>
            <path id="Rectangle_1851" d="M1.386 0h.056v2.773h-.056A1.386 1.386 0 0 1 0 1.386 1.386 1.386 0 0 1 1.386 0z" class="cls-17" transform="rotate(-80.853 13.17 -11.382)"/>
            <path id="Path_3901" d="M322.143 203.985a3.645 3.645 0 0 0-1.286-.217.358.358 0 0 0-.15.392.62.62 0 0 0 .267.351 1.01 1.01 0 0 0 .976.079.539.539 0 0 0 .279-.258.286.286 0 0 0-.086-.347z" class="cls-18" transform="translate(-289.163 -197.97)"/>
        </g>
        <path id="Line_362" d="M0 0L154.878 0" class="cls-7" transform="translate(7.784 195.471)"/>
    </g>
</svg>
