<svg xmlns="http://www.w3.org/2000/svg" width="107.667" height="123.657" viewBox="0 0 107.667 123.657">
    <defs>
        <clipPath id="clip-path">
            <path id="Rectangle_1896" d="M0 0H21.043V11.736H0z" class="cls-1"/>
        </clipPath>
        <clipPath id="clip-path-2">
            <path id="Rectangle_1898" d="M0 0H21.043V16.228H0z" class="cls-1"/>
        </clipPath>
        <style>
            .cls-1,.cls-10,.cls-21,.cls-23,.cls-24,.cls-27,.cls-28,.cls-3,.cls-31,.cls-5,.cls-9{fill:none}.cls-2{fill:#7db6f9}.cls-3{stroke:#aed5fe}.cls-21,.cls-23,.cls-24,.cls-27,.cls-28,.cls-3,.cls-31,.cls-5{stroke-linecap:round;stroke-linejoin:round}.cls-4{fill:#aed5fe}.cls-5{stroke:#7db6f9}.cls-6{fill:#5082db}.cls-10,.cls-9{stroke:#e1ecff;stroke-miterlimit:10}.cls-9{stroke-width:3px}.cls-10{stroke-width:6px}.cls-13{fill:#fcbf31}.cls-14{fill:#5a92e5}.cls-15{fill:#2e53ab}.cls-16{fill:#339fe0;opacity:.3;mix-blend-mode:multiply;isolation:isolate}.cls-17{fill:#f4406f}.cls-18{fill:#eaf3ff}.cls-20{fill:#fcd3b3}.cls-21{stroke:#eaf3ff}.cls-23,.cls-24{stroke:#9ed3f5}.cls-23{stroke-dasharray:4}.cls-27{stroke:#ad2556}.cls-28{stroke:#f3809f}.cls-29{fill:#eda6a6}.cls-31{stroke:#c67d7d}.cls-32{fill:#172e56}
        </style>
    </defs>
    <g id="Group_2491" transform="translate(-72.166 -67.727)">
        <g id="Group_2472" transform="translate(72.166 67.727)">
            <g id="Group_2446" transform="translate(81.093 82.465)">
                <g id="Group_2444" transform="translate(1.832 5.751)">
                    <path id="Path_3989" d="M332.249 368.013a34.137 34.137 0 0 1 2.763-15.235c2.6-5.938 5.107-8.795 7.117-8.209s.335 4.521 1.842 4.27 6.782-5.422 10.968-4.344.837 4.623-1.423 7.288 2.344.5 2.679 3.419c.622 5.418-16.661 7.285-23.946 12.811z" class="cls-2" transform="translate(-332.194 -344.348)"/>
                    <g id="Group_2443" transform="translate(.055 3.068)">
                        <path id="Path_3990" d="M352.546 353.968s-11.638 5.442-20.178 20.6" class="cls-3" transform="translate(-332.367 -353.968)"/>
                        <path id="Path_3991" d="M358.275 357.16s-1.276 2.666-1.391 8.778a49.184 49.184 0 0 1 12.36-1.591" class="cls-3" transform="translate(-349.065 -356.142)"/>
                        <path id="Path_3992" d="M370.986 365a35.367 35.367 0 0 1 7.444-2.816" class="cls-3" transform="translate(-358.67 -359.563)"/>
                        <path id="Path_3993" d="M343.657 372.872a38.234 38.234 0 0 0-1.9 9.8 46.631 46.631 0 0 1 10.57-3.715" class="cls-3" transform="translate(-338.762 -366.843)"/>
                    </g>
                </g>
                <g id="Group_2445">
                    <path id="Path_3994" d="M328.839 353.553s-5.024-14.876-.5-27.24c-.002 0 5.021 9.155.5 27.24z" class="cls-4" transform="translate(-326.45 -326.313)"/>
                    <path id="Path_3995" d="M333.155 341.111a148.448 148.448 0 0 1 .251 22.521" class="cls-5" transform="translate(-331.017 -336.392)"/>
                </g>
            </g>
            <g id="Group_2451" transform="translate(0 70.501)">
                <g id="Group_2448" transform="translate(0 21.775)">
                    <path id="Path_3996" d="M97.293 369.762s-9.043-10.382-12.81-11.973-4.485-.242-5.777 1.423c-.523.674-4.856-1.256-6.2 2.009s1.464 4.126 4.605 5.024c2.344.67-2.261 2.093-.67 4.773s6.116 2.261 20.852-1.256z" class="cls-4" transform="translate(-72.166 -357.079)"/>
                    <g id="Group_2447" transform="translate(2.269 2.72)">
                        <path id="Path_3997" d="M79.281 372.845s6.865-.555 22.858 7.65" class="cls-5" transform="translate(-79.281 -370.531)"/>
                        <path id="Path_3998" d="M95.033 375.571a77.412 77.412 0 0 1 16.027-.909s-5.9-6.208-12.678-9.055" class="cls-5" transform="translate(-90.01 -365.607)"/>
                    </g>
                </g>
                <g id="Group_2450" transform="translate(6.539)">
                    <path id="Path_3999" d="M113.881 323.6s-1.172-13.56-6.879-21.893A45.293 45.293 0 0 0 92.67 288.8s.251 12.372 5.861 21.747a33.776 33.776 0 0 0 15.35 13.053z" class="cls-2" transform="translate(-92.67 -288.799)"/>
                    <g id="Group_2449" transform="translate(2.763 6.407)">
                        <path id="Path_4000" d="M105.535 308.889a82.4 82.4 0 0 1 17.108 28.4" class="cls-3" transform="translate(-104.196 -308.889)"/>
                        <path id="Path_4001" d="M101.335 315.043a51.925 51.925 0 0 1 8.506 5.442s-.658-4.938-2.517-7.745" class="cls-3" transform="translate(-101.335 -311.512)"/>
                        <path id="Path_4002" d="M111.561 343.368a49.023 49.023 0 0 1 8.544 3.2" class="cls-3" transform="translate(-108.3 -332.372)"/>
                        <path id="Path_4003" d="M126.633 340.176a86.219 86.219 0 0 1 1.787 8.735 50.767 50.767 0 0 0-8.258-2.372" class="cls-3" transform="translate(-114.158 -330.198)"/>
                        <path id="Path_4004" d="M133.11 374.044a24.24 24.24 0 0 1 7.2 4.69" class="cls-3" transform="translate(-122.977 -353.266)"/>
                    </g>
                </g>
            </g>
            <g id="Group_2471" transform="translate(12.831)">
                <g id="Group_2469" transform="translate(9.455 17.918)">
                    <g id="Group_2463">
                        <g id="Group_2452">
                            <path id="Rectangle_1888" d="M0 0H57.445V87.077H0z" class="cls-6"/>
                            <path id="Rectangle_1889" fill="#8fc6ff" d="M0 0H51.437V83.728H0z" transform="translate(3.004 3.349)"/>
                        </g>
                        <g id="Group_2453" transform="translate(34.918 22.592)">
                            <path id="Rectangle_1890" d="M0 0H5.647V6.64H0z" class="cls-2" transform="translate(2.182)"/>
                            <path id="Rectangle_1891" d="M0 0H4.104V4.934H0z" class="cls-2" transform="translate(7.829 1.706)"/>
                            <path id="Rectangle_1892" d="M0 0H3.669V6.354H0z" class="cls-2" transform="translate(15.854 .286)"/>
                            <path id="Rectangle_1893" d="M0 0H19.523V1.189H0z" class="cls-4" transform="translate(0 6.64)"/>
                        </g>
                        <g id="Group_2462" transform="translate(31.332 44.693)">
                            <path id="Rectangle_1894" d="M0 0H23.109V42.384H0z" class="cls-2"/>
                            <g id="Group_2457" transform="translate(2.066 2.474)">
                                <path id="Rectangle_1895" d="M0 0H21.043V11.736H0z" class="cls-4"/>
                                <g id="Group_2456">
                                    <g id="Group_2455" clip-path="url(#clip-path)">
                                        <g id="Group_2454" transform="translate(-2.144 -1.815)">
                                            <path id="Line_371" d="M0 9.479L10.78 0" class="cls-9" transform="translate(.525)"/>
                                            <path id="Line_372" d="M0 12.912L14.685 0" class="cls-10" transform="translate(0 .768)"/>
                                        </g>
                                    </g>
                                </g>
                            </g>
                            <g id="Group_2461" transform="translate(2.066 16.053)">
                                <path id="Rectangle_1897" d="M0 0H21.043V16.228H0z" class="cls-4"/>
                                <g id="Group_2460">
                                    <g id="Group_2459" clip-path="url(#clip-path-2)">
                                        <g id="Group_2458" transform="translate(-2.144 -3.381)">
                                            <path id="Line_373" d="M0 9.479L10.78 0" class="cls-9" transform="translate(.525)"/>
                                            <path id="Line_374" d="M0 12.912L14.685 0" class="cls-10" transform="translate(0 .768)"/>
                                        </g>
                                    </g>
                                </g>
                            </g>
                        </g>
                    </g>
                    <g id="Group_2467" transform="translate(2.669 3.349)">
                        <path id="Rectangle_1899" fill="#6aa0ef" d="M0 0H25.718V83.728H0z" transform="translate(.335)"/>
                        <path id="Path_4005" d="M215.5 242.936a1.428 1.428 0 1 1-1.428-1.428 1.428 1.428 0 0 1 1.428 1.428z" class="cls-13" transform="translate(-192.799 -207.355)"/>
                        <g id="Group_2464" transform="translate(3.37 2.735)">
                            <path id="Rectangle_1900" d="M0 0H19.648V26.905H0z" class="cls-6"/>
                            <path id="Rectangle_1901" d="M0 0H17.415V24.895H0z" class="cls-14" transform="translate(1.116 1.005)"/>
                        </g>
                        <g id="Group_2465" transform="translate(3.37 42.101)">
                            <path id="Rectangle_1902" d="M0 0H19.648V16.006H0z" class="cls-6"/>
                            <path id="Rectangle_1903" d="M0 0H17.415V13.69H0z" class="cls-14" transform="translate(1.116 1.158)"/>
                        </g>
                        <g id="Group_2466" transform="translate(3.37 60.521)">
                            <path id="Rectangle_1904" d="M0 0H19.648V16.006H0z" class="cls-6"/>
                            <path id="Rectangle_1905" d="M0 0H17.415V13.69H0z" class="cls-14" transform="translate(1.116 1.158)"/>
                        </g>
                        <path id="Rectangle_1906" d="M0 0H0.977V83.728H0z" class="cls-15"/>
                    </g>
                    <g id="Group_2468" transform="translate(34.918 12.894)">
                        <path id="Rectangle_1907" d="M0 0H2.805V2.926H0z" class="cls-2" transform="translate(2.344 3.122)"/>
                        <path id="Rectangle_1908" d="M0 0H3.989V5.378H0z" class="cls-2" transform="translate(6.226 .67)"/>
                        <path id="Rectangle_1909" d="M0 0H2.662V4.15H0z" class="cls-2" transform="translate(11.932 1.898)"/>
                        <path id="Rectangle_1910" d="M0 0H3.669V6.048H0z" class="cls-2" transform="translate(15.854)"/>
                        <path id="Rectangle_1911" d="M0 0H19.523V1.189H0z" class="cls-4" transform="translate(0 6.048)"/>
                    </g>
                    <path id="Path_4006" d="M142.049 137.763a4.826 4.826 0 0 0 1.037-1.8 4.835 4.835 0 0 0 9.229 0 4.835 4.835 0 0 0 9.229 0 4.835 4.835 0 0 0 9.229 0 4.835 4.835 0 0 0 9.229 0 4.835 4.835 0 0 0 9.229 0 4.835 4.835 0 0 0 9.229 0 4.821 4.821 0 0 0 1.036 1.8v-13.85h-57.447z" class="cls-16" transform="translate(-142.049 -123.913)"/>
                </g>
                <g id="Group_2470" transform="translate(1.043)">
                    <path id="Path_4007" d="M184.415 67.727H121.2l-5.526 16.913v4.907a4.834 4.834 0 0 0 9.448 1.442 4.835 4.835 0 0 0 9.229 0 4.835 4.835 0 0 0 9.229 0 4.835 4.835 0 0 0 9.229 0 4.835 4.835 0 0 0 9.229 0 4.835 4.835 0 0 0 9.229 0 4.835 4.835 0 0 0 9.229 0 4.834 4.834 0 0 0 9.448-1.442V84.64z" class="cls-17" transform="translate(-115.674 -67.727)"/>
                    <path id="Path_4008" d="M157.27 67.727h-7.965L145.3 84.64v6.35a4.835 4.835 0 0 0 9.229 0v-6.35z" class="cls-18" transform="translate(-135.852 -67.727)"/>
                    <path id="Path_4009" d="M204.511 67.727l-1.335 16.913v6.35a4.835 4.835 0 0 0 9.229 0V67.727z" class="cls-18" transform="translate(-175.271 -67.727)"/>
                    <path id="Path_4010" d="M258.2 84.64v6.349a4.835 4.835 0 0 0 9.229 0V84.64l-2.67-16.913h-7.894z" class="cls-18" transform="translate(-211.839 -67.727)"/>
                    <path id="Path_4011" d="M314.989 94.381a4.833 4.833 0 0 0 4.833-4.833V84.64L314.3 67.727h-7.93l4.005 16.913v6.35a4.835 4.835 0 0 0 4.614 3.391z" class="cls-18" transform="translate(-245.556 -67.727)"/>
                    <path id="Path_4012" d="M120.507 130.5a4.835 4.835 0 0 0 4.615-3.391 4.835 4.835 0 0 0 9.229 0 4.835 4.835 0 0 0 9.229 0 4.835 4.835 0 0 0 9.229 0 4.835 4.835 0 0 0 9.229 0 4.835 4.835 0 0 0 9.229 0 4.835 4.835 0 0 0 9.229 0 4.834 4.834 0 0 0 9.448-1.442v-4.907h-74.27v4.907a4.833 4.833 0 0 0 4.833 4.833z" class="cls-16" transform="translate(-115.674 -103.849)"/>
                </g>
                <path id="Rectangle_1912" d="M0 0H65.196V5.191H0z" class="cls-15" transform="translate(5.579 104.995)"/>
                <path id="Rectangle_1913" fill="#22458c" d="M0 0H76.354V5.191H0z" transform="translate(0 109.867)"/>
            </g>
        </g>
        <g id="Group_2490" transform="translate(108.449 100.127)">
            <path id="Path_4013" d="M192.49 235.148s-4.061 13.564-3.391 14.862 9.536 9 10.168 8.875 1.422-1.855 1.153-3.23c0 0-5.54-6.106-6.086-6.9s2.133-6.54 2.008-7.77-3.852-5.837-3.852-5.837z" class="cls-20" transform="translate(-188.041 -214.156)"/>
            <g id="Group_2477" transform="translate(4.493 39.58)">
                <g id="Group_2473" transform="translate(15.841 45.669)">
                    <path id="Path_4014" d="M250.311 436.852s-.969 3.642-.463 4.27 6.659.711 8.167.251-.251-2.136-2.135-2.114c0 0-1.959-1.069-2.386-1.417s-.251-1.157-.754-1.2a22.812 22.812 0 0 0-2.429.21z" class="cls-17" transform="translate(-249.702 -436.638)"/>
                    <path id="Path_4015" d="M258.177 442.239a1.576 1.576 0 0 1 1.439-1.068" class="cls-21" transform="translate(-255.474 -439.725)"/>
                    <path id="Path_4016" d="M262.69 444.257s.332-.932 1.163-.926" class="cls-21" transform="translate(-258.548 -441.197)"/>
                    <path id="Path_4017" d="M253.744 443.387a.541.541 0 1 1-.541-.541.541.541 0 0 1 .541.541z" class="cls-18" transform="translate(-251.719 -440.866)"/>
                    <path id="Path_4018" d="M249.7 446.088a1.127 1.127 0 0 0 .145.635c.505.628 6.659.711 8.167.251 1.487-.454-.205-2.09-2.06-2.113a1.7 1.7 0 0 0-.368 1.611 15.8 15.8 0 0 1-5.884-.384z" class="cls-18" transform="translate(-249.704 -442.239)"/>
                </g>
                <g id="Group_2474" transform="translate(0 46.609)">
                    <path id="Path_4019" d="M202.655 439.585s-.991 2.179-1.238 2.575c0 0-1.288.05-1.387 2.031 0 0 1.981 1.04 5.547 0l-.248-4.606z" class="cls-17" transform="translate(-200.03 -439.585)"/>
                    <path id="Path_4020" d="M208.478 445.437a2.91 2.91 0 0 0-2.953-.411" class="cls-21" transform="translate(-203.773 -443.159)"/>
                    <path id="Path_4021" d="M209.682 441.726a3.2 3.2 0 0 0-2.389-.275" class="cls-21" transform="translate(-204.977 -440.779)"/>
                    <path id="Path_4022" d="M200.03 449.689s1.981 1.04 5.547 0l-.061-1.135c-.131.275-.294.5-.484.551 0 0 0-1.5-3.615-1.446 0-.001-1.288.049-1.387 2.03z" class="cls-18" transform="translate(-200.03 -445.083)"/>
                </g>
                <g id="Group_2476" transform="translate(1.564)">
                    <path id="Path_4023" fill="#4a8aec" d="M208.517 293.434l11.638.074s2.3 25.432 2.464 28.363 1.22 16.358.885 17.446-4.1.921-4.354.586-2.393-14.516-2.56-16.106-1.626-12.11-1.626-12.11-1.674 8.959-2.093 11.052-3.014 17.248-3.014 17.248c-1.172 1.172-4.521.586-4.856 0s.713-17.666.686-19.676c-.062-4.605 2.83-26.877 2.83-26.877z" transform="translate(-204.935 -293.434)"/>
                    <g id="Group_2475" transform="translate(.543 .074)">
                        <path id="Path_4024" d="M210.765 293.667s-.688 4.536-1.172 9.429c-.305 3.083-1.385 16.285-1.552 17.96s-1.4 19.41-1.4 19.41" class="cls-23" transform="translate(-206.636 -293.667)"/>
                        <path id="Path_4025" d="M237.517 337.812s1.949 13.531 2.193 15.959 1.839 16.461 1.839 16.461" class="cls-23" transform="translate(-227.669 -323.734)"/>
                        <path id="Path_4026" d="M219.44 295.8s.586 3.935 0 4.438a5.712 5.712 0 0 1-2.279.67" class="cls-24" transform="translate(-213.804 -295.118)"/>
                        <path id="Path_4027" d="M248.725 295.8l.457 3.935 1.339 1.172" class="cls-24" transform="translate(-235.303 -295.118)"/>
                        <path id="Path_4028" d="M236.385 313.3s.837-10.466.754-17.5" class="cls-24" transform="translate(-226.898 -295.118)"/>
                        <path id="Path_4029" d="M239.869 293.667s.335 4.112 0 4.949a1.478 1.478 0 0 1-1.319.837" class="cls-24" transform="translate(-228.372 -293.667)"/>
                    </g>
                </g>
            </g>
            <g id="Group_2478" fill="none" stroke-linecap="round" stroke-linejoin="round" stroke-width="2px" transform="translate(5.579 33.941)">
                <path id="Path_4030" stroke="#e3a214" d="M208.124 284.041s-4.607-.89-4.686.173 1.406 3.45 2.054 3.146 2.632-3.319 2.632-3.319z" transform="translate(-203.436 -281.16)"/>
                <path id="Path_4031" stroke="#fcbf31" d="M209.946 278.655s-3.042-3.572-3.768-2.791-1.057 3.572-.361 3.74 4.129-.949 4.129-.949z" transform="translate(-204.797 -275.753)"/>
            </g>
            <g id="Group_2482">
                <path id="Path_4032" d="M264.487 177.931c.147-.363-1.257-.4-1.536-.9s-.781-2.72-1.2-3.537.642-.844 1.4.551c0 0 .139.391.139-1s.418-3.154.753-3.293.168 3.182.363 3.517.363-3.8 1-3.935.167 3.182.279 3.461.642-2.679 1.033-2.791-.167 2.945-.167 3.5.809-1.933 1.144-1.794-.7 4.71-.725 6.161-.223 10.892-1.033 11.952-12.448 5.554-13.787 5.024-2.025-6.084.327-6.754 8.241-.893 8.855-1.228 2.122-6.394 3.155-8.934z" class="cls-20" transform="translate(-230.201 -169.324)"/>
                <g id="Group_2481" transform="translate(0 17.701)">
                    <path id="Path_4033" d="M197.745 225.208s-5.765.9-6.937 1.866-5.107 7.954-4.856 8.289a11.577 11.577 0 0 0 3.935 2.093 6.472 6.472 0 0 0 3.642.293 7.2 7.2 0 0 0 .335-2.135s1.27 4.842 1.549 6.238-.67 5.526-.391 6.084 2.177 1.842 5.861 1.73 6.326-1.451 6.568-2.009-.372-7.033-.316-9.266.239-5.135.239-5.135a19.085 19.085 0 0 0 3.669.782 7.345 7.345 0 0 0 2.009-4.354c.223-2.177-.223-4.41-.67-4.744s-7.623.2-10.008.269-4.629-.001-4.629-.001z" class="cls-17" transform="translate(-185.94 -224.83)"/>
                    <g id="Group_2479" transform="translate(4.663 .226)">
                        <path id="Path_4034" d="M200.561 232.494s1.691.694 3.261 8.34" class="cls-27" transform="translate(-200.561 -230.276)"/>
                        <path id="Path_4035" d="M247.235 225.538s-.6 1.893 1.842 8.2" class="cls-27" transform="translate(-232.306 -225.538)"/>
                    </g>
                    <g id="Group_2480" transform="translate(.357)">
                        <path id="Path_4036" d="M187.059 254.713a15.443 15.443 0 0 0 7.4 2.892" class="cls-28" transform="translate(-187.059 -245.183)"/>
                        <path id="Path_4037" d="M261.845 233.956s2.4-3.319 1.4-9.126" class="cls-28" transform="translate(-237.995 -224.83)"/>
                        <path id="Path_4038" d="M220.573 226.112a3.534 3.534 0 0 0 3.235 1.938 2.51 2.51 0 0 0 2.567-2.081" class="cls-28" transform="translate(-209.885 -225.606)"/>
                    </g>
                </g>
            </g>
            <g id="Group_2488" transform="translate(9.866 1.626)">
                <g id="Group_2483" transform="translate(1.939 11.036)">
                    <path id="Path_4039" d="M223.445 209.029a11.605 11.605 0 0 1-.487 5.417 3.414 3.414 0 0 0 4.629 0 10.455 10.455 0 0 1-.167-4.221z" class="cls-20" transform="translate(-222.958 -209.029)"/>
                    <path id="Path_4040" d="M224.486 209.029a13.422 13.422 0 0 1 .11 2.4c.611.878 1.538 1.906 2.533 1.906a2.046 2.046 0 0 0 1.245-.467 13.856 13.856 0 0 1 .086-2.648z" class="cls-29" transform="translate(-223.999 -209.029)"/>
                </g>
                <g id="Group_2487">
                    <path id="Path_4041" fill="#214489" d="M251.662 189.26a4.225 4.225 0 0 0 2.338.34c1.256-.209.1 2.171-1.98 2.666a3.625 3.625 0 0 1-.358-3.006z" transform="translate(-240.457 -184.528)"/>
                    <path id="Path_4042" d="M228.777 181.635c4.145 1.423 3.558 5.191 2.386 7.787-.992 2.2-3.046 4.479-5.474 3.81s-4.636-3.1-3.234-7.7c1.045-3.432 3.585-4.832 6.322-3.897z" class="cls-20" transform="translate(-220.378 -179.14)"/>
                    <path id="Path_4043" d="M223.079 180.078s1.331.021 2.954-1.988a9.939 9.939 0 0 0 5.411 1.737c3.224.063 3.872-2.037 2.491-2.33 0 0 1.423-2.359.084-2.945s-2.868 1.047-5.233.46-4.015-.8-4.225.775a1.27 1.27 0 0 0-1.678.251c-.691.879-.176 5.094-.176 5.094z" class="cls-15" transform="translate(-220.722 -174.423)"/>
                    <g id="Group_2484" transform="translate(0 3.867)">
                        <path id="Path_4044" d="M218.538 191.2l.7-2.865s-.067-1.938-1.191-1.779c-1.388.197-1.893 4.475.491 4.644z" class="cls-29" transform="translate(-216.878 -186.548)"/>
                        <path id="Path_4045" d="M218.383 186.557c-.455.064-.814.57-1.007 1.225a2.1 2.1 0 0 1 2.177.641l.021-.087s-.067-1.936-1.191-1.779z" class="cls-20" transform="translate(-217.217 -186.548)"/>
                    </g>
                    <g id="Group_2485" transform="translate(9.726 8.469)">
                        <path id="Path_4046" d="M247.374 204.363l1.419-2.584s1.357-1.385 2.08-.51c.889 1.079-1.624 4.577-3.499 3.094z" class="cls-29" transform="translate(-247.374 -200.979)"/>
                        <path id="Path_4047" d="M253.81 201.269c-.722-.876-2.08.51-2.08.51l-.043.079a2.1 2.1 0 0 1 2.037 1 1.543 1.543 0 0 0 .086-1.589z" class="cls-20" transform="translate(-250.312 -200.979)"/>
                    </g>
                    <g id="Group_2486" transform="translate(2.445 4.821)">
                        <path id="Path_4048" d="M238.928 194.453a10.656 10.656 0 0 0-1.507 2.317s.977.307 1 .586-1.339.921-1.339.921" class="cls-31" transform="translate(-233.087 -192.886)"/>
                        <path id="Path_4049" d="M233.11 195.02c-.062.253-.262.421-.447.375a.423.423 0 0 1-.224-.54c.062-.253.262-.421.448-.375a.423.423 0 0 1 .223.54z" class="cls-32" transform="translate(-229.909 -192.9)"/>
                        <path id="Path_4050" d="M244.544 199.57c-.062.253-.262.421-.448.375a.423.423 0 0 1-.223-.54c.062-.253.262-.421.447-.375a.423.423 0 0 1 .224.54z" class="cls-32" transform="translate(-237.697 -195.999)"/>
                        <path id="Path_4051" d="M232.731 190.1a1.561 1.561 0 0 1 .823-.5.847.847 0 0 1 .549-.032c.091.032.391.21.37.337-.041.235-.71.117-.865.093-.199-.031-.785.208-.877.102z" class="cls-15" transform="translate(-230.121 -189.54)"/>
                        <path id="Path_4052" d="M246.434 193.886a.534.534 0 0 1 .4-.014.684.684 0 0 1 .382.447 1.409 1.409 0 0 1 .113.53c0 .039-.064.424-.09.364a2.068 2.068 0 0 1-.141-.356 1.288 1.288 0 0 0-.224-.327c-.084-.074-.215-.139-.268-.243-.028-.037-.315-.252-.173-.4-.003.003-.01.006.001-.001z" class="cls-15" transform="translate(-239.427 -192.468)"/>
                        <path id="Path_4053" d="M230.216 205.743a2.32 2.32 0 0 0 2.533 1.591" class="cls-31" transform="translate(-228.408 -200.576)"/>
                        <path id="Path_4054" d="M227.095 198.342a1.337 1.337 0 1 1-.869-1.509 1.239 1.239 0 0 1 .869 1.509z" class="cls-29" transform="translate(-224.546 -194.448)"/>
                        <path id="Path_4055" d="M244.537 204.847a1.337 1.337 0 1 1-.869-1.509 1.239 1.239 0 0 1 .869 1.509z" class="cls-29" transform="translate(-236.426 -198.878)"/>
                    </g>
                </g>
            </g>
            <g id="Group_2489" transform="translate(6.961 17.752)">
                <path id="Path_4056" d="M211.117 225.577a49.512 49.512 0 0 0 2.186 4.6c.326.279 4.077 0 4.351-.391a33.776 33.776 0 0 0 .665-4.628 1.387 1.387 0 0 1 1.339 0s.534 5.577.741 6.079a25.27 25.27 0 0 0 2.228 2.821c.269.3.421 10.165.456 12.826s2.847 14.215 2.753 14.941-5.035 2.233-9.653 2.233-8.414-1.954-8.414-2.345 3.238-14.066 3.349-15.573-2.645-9.724-2.549-10.233 1.544-3.717 1.712-4.362-1.113-5.242-1.254-5.539 1.473-.906 2.09-.429z" class="cls-13" transform="translate(-207.768 -224.987)"/>
                <path id="Path_4057" d="M232.946 255.384a2.776 2.776 0 1 1-2.778-2.774 2.776 2.776 0 0 1 2.778 2.774z" class="cls-18" transform="translate(-221.135 -243.801)"/>
                <path id="Path_4058" fill="none" stroke="#e3a214" stroke-linecap="round" stroke-linejoin="round" d="M234.4 270.018a8.806 8.806 0 0 1-5.979 3.778 13.464 13.464 0 0 0 5.224 0" transform="translate(-221.835 -255.657)"/>
            </g>
        </g>
    </g>
</svg>
