<svg width="346" height="77" viewBox="0 0 346 77" fill="none" xmlns="http://www.w3.org/2000/svg">
<path d="M123.92 37.139V55.393C123.92 57.01 123.92 57.01 122.253 57.01H114.685C112.814 57.01 112.801 57 112.801 55.159C112.801 46.959 112.796 38.759 112.785 30.559V16.68C112.785 16.239 112.851 15.798 112.885 15.356L113.161 15.156L137.555 35.256V16.809C137.555 15.273 137.625 15.199 139.155 15.199H147.255C148.455 15.199 148.672 15.41 148.672 16.605V56.034C148.668 56.4343 148.549 56.825 148.328 57.159L123.92 37.139ZM202.011 57.082C200.495 57.061 198.975 57.068 197.458 57.068H194.335C192.895 57.058 192.649 56.655 193.285 55.327C199.426 42.483 205.58 29.6467 211.749 16.818C211.937 16.425 212.384 16.159 212.711 15.832C213.036 16.164 213.478 16.432 213.667 16.832C219.787 29.646 225.898 42.4623 232.001 55.281C232.673 56.695 232.47 57.001 230.901 57.001H228.462C226.47 57.001 224.475 56.991 222.484 57.023C222.175 57.0586 221.864 56.9845 221.604 56.8135C221.344 56.6426 221.153 56.3858 221.064 56.088C218.264 49.7193 215.455 43.355 212.636 36.995C212.541 36.78 212.425 36.575 212.202 36.135C210.748 39.508 209.393 42.647 208.042 45.788C206.578 49.194 205.092 52.595 203.679 56.016C203.578 56.3564 203.361 56.6508 203.066 56.8476C202.77 57.0444 202.415 57.1313 202.062 57.093L202.011 57.082ZM158.229 51.359C156.478 49.675 156.488 49.539 158.413 48.103C160.133 46.825 161.853 45.563 163.537 44.253C163.729 44.0343 164.001 43.901 164.292 43.8822C164.582 43.8635 164.869 43.9609 165.088 44.153C165.173 44.2277 165.247 44.3155 165.305 44.413C166.509 45.8397 168.086 46.9043 169.859 47.4883C171.633 48.0724 173.533 48.1529 175.35 47.721C176.021 47.6662 176.656 47.3916 177.155 46.9396C177.654 46.4876 177.991 45.8835 178.112 45.221C178.167 44.5471 177.988 43.8748 177.605 43.3172C177.223 42.7596 176.66 42.3506 176.012 42.159C174.086 41.342 172.102 40.659 170.119 39.981C167.242 39.1859 164.6 37.7069 162.419 35.67C161.154 34.3544 160.217 32.7586 159.685 31.0125C159.154 29.2664 159.042 27.4195 159.359 25.622C159.776 22.9958 161.052 20.5817 162.985 18.7565C164.919 16.9312 167.403 15.7974 170.049 15.532V15.532C171.259 15.3545 172.481 15.2629 173.704 15.258C176.817 15.2193 179.891 15.9573 182.648 17.405C183.785 18.0943 184.861 18.8794 185.865 19.752C186.013 19.8334 186.137 19.9512 186.227 20.0942C186.317 20.2372 186.369 20.4007 186.378 20.5693C186.387 20.7379 186.353 20.906 186.279 21.0578C186.206 21.2096 186.094 21.3401 185.956 21.437C184.408 23.051 182.856 24.674 181.339 26.326C181.248 26.4767 181.122 26.6029 180.971 26.6937C180.82 26.7845 180.649 26.8371 180.474 26.8469C180.298 26.8568 180.123 26.8236 179.963 26.7502C179.803 26.6769 179.663 26.5656 179.556 26.426C178.587 25.5589 177.431 24.9253 176.179 24.5737C174.927 24.2222 173.611 24.1621 172.332 24.398C171.746 24.4384 171.191 24.6728 170.753 25.0641C170.315 25.4555 170.02 25.9814 169.915 26.559C169.809 27.1366 169.899 27.7329 170.17 28.2537C170.441 28.7745 170.878 29.1901 171.412 29.435C173.34 30.244 175.337 30.889 177.318 31.562C180.287 32.4028 183.058 33.831 185.466 35.762C186.597 36.787 187.49 38.0464 188.084 39.4523C188.679 40.8581 188.959 42.3767 188.906 43.902C189.065 45.8464 188.735 47.7996 187.947 49.584C187.158 51.3684 185.936 52.9273 184.392 54.119C182.303 55.6015 179.865 56.5169 177.316 56.776C176.076 56.948 174.811 56.976 173.557 57.076C170.752 57.178 167.954 56.7256 165.323 55.7446C162.693 54.7635 160.282 53.2732 158.229 51.359V51.359ZM94.6428 57.022C93.7328 57.022 93.3918 56.677 93.3918 55.74C93.4072 42.664 93.4038 29.5897 93.3818 16.517C93.3818 15.497 93.8199 15.186 94.7449 15.186H94.7888C96.5568 15.207 98.3269 15.2 100.089 15.2H103.096C104.347 15.2 104.561 15.417 104.561 16.672V36.126V55.473C104.561 56.947 104.497 57.005 103.013 57.005H100.581C98.6218 57.005 96.6648 56.993 94.7048 57.024L94.6428 57.022Z" fill="#0067CD"/>
<path d="M30.4618 1.9416e-07C33.8214 -0.000507279 37.106 0.993775 39.9013 2.85742C42.6966 4.72107 44.8773 7.37067 46.1689 10.4721C47.4604 13.5735 47.8049 16.9879 47.1586 20.2848C46.5123 23.5816 44.904 26.6133 42.537 28.9976C40.1701 31.3818 37.1504 33.0118 33.8583 33.682C30.5662 34.3523 27.1492 34.0328 24.0385 32.7638C20.9277 31.4948 18.2627 29.3332 16.3788 26.5515C14.4949 23.7698 13.4764 20.4925 13.4525 17.133C13.4372 14.8892 13.8659 12.6646 14.7138 10.5871C15.5616 8.50961 16.8121 6.62033 18.393 5.02795C19.9738 3.43558 21.8539 2.17156 23.9252 1.30866C25.9965 0.445754 28.218 0.00100292 30.4618 1.9416e-07V1.9416e-07Z" fill="#0067CD"/>
<path d="M73.1727 57.769C72.6007 57.758 72.0186 57.752 71.3836 57.729C71.1836 57.156 70.9396 56.607 70.6956 56.054C70.5126 55.639 70.3306 55.223 70.1556 54.822C70.3846 54.553 70.6375 54.305 70.8905 54.057C71.1005 53.857 71.3087 53.647 71.5067 53.432C71.7664 53.1765 71.9729 52.8724 72.1151 52.537C72.2572 52.2016 72.3318 51.8414 72.3348 51.4771C72.3378 51.1128 72.2693 50.7515 72.1326 50.4138C71.996 50.0761 71.7939 49.7687 71.5384 49.509C71.5114 49.479 71.4786 49.449 71.4486 49.42C70.9245 48.8944 70.2137 48.5979 69.4715 48.5953C68.7293 48.5926 68.0163 48.8842 67.4886 49.406C67.0096 49.847 66.5497 50.306 66.0887 50.771C65.6157 50.545 65.1313 50.341 64.6463 50.139C64.1613 49.937 63.7183 49.752 63.2713 49.539C63.2258 49.5038 63.1857 49.4624 63.1517 49.416C63.121 49.087 63.112 48.7562 63.1253 48.426C63.1253 48.139 63.1353 47.853 63.1253 47.566C63.1054 46.8128 62.79 46.0978 62.2469 45.5757C61.7038 45.0535 60.9768 44.7662 60.2235 44.7759C59.4701 44.7857 58.751 45.0916 58.2215 45.6276C57.6921 46.1636 57.3948 46.8866 57.3944 47.64C57.3621 48.2569 57.3768 48.8753 57.4383 49.49C57.3907 49.5173 57.3405 49.5398 57.2884 49.557C56.3884 49.886 55.4526 50.273 54.4066 50.773C54.0066 50.343 53.5845 49.932 53.1615 49.522C52.651 48.967 51.9412 48.6376 51.1878 48.6061C50.4345 48.5746 49.6993 48.8436 49.1444 49.354C49.1004 49.394 49.0584 49.436 49.0174 49.479C48.4877 50.004 48.188 50.7178 48.1844 51.4636C48.1808 52.2093 48.4737 52.926 48.9984 53.456C49.0314 53.49 49.0655 53.523 49.0985 53.556C49.2505 53.712 49.4063 53.863 49.5633 54.013C49.8497 54.2617 50.0984 54.5511 50.3006 54.872C50.1266 55.335 49.9327 55.789 49.7367 56.243C49.5407 56.697 49.3366 57.18 49.1546 57.656C49.0766 57.864 49.0835 57.815 49.0965 57.786C48.6134 57.7557 48.129 57.7503 47.6453 57.77H47.4056C47.0267 57.7534 46.6483 57.8116 46.2918 57.9412C45.9354 58.0709 45.6077 58.2695 45.328 58.5257C44.7631 59.0431 44.4269 59.7637 44.3934 60.529C44.3768 60.9079 44.4351 61.2864 44.5648 61.6429C44.6944 61.9993 44.8931 62.3267 45.1493 62.6064C45.4054 62.8861 45.7142 63.1126 46.0579 63.2729C46.4017 63.4333 46.7737 63.5244 47.1527 63.541C47.1877 63.541 47.2245 63.541 47.2625 63.541C47.8653 63.5895 48.4719 63.5677 49.0697 63.476C49.0991 63.5253 49.123 63.5776 49.1414 63.632C49.5714 64.745 49.9486 65.638 50.3416 66.461C50.3416 66.48 50.3586 66.495 50.3626 66.51C49.8796 66.963 49.4062 67.43 48.9622 67.92C48.4594 68.461 48.1868 69.1763 48.2015 69.9148C48.2162 70.6533 48.5174 71.3571 49.0413 71.8777C49.5653 72.3983 50.2711 72.6949 51.0096 72.7048C51.7481 72.7148 52.4616 72.4373 52.9993 71.931C53.4733 71.501 53.9316 71.046 54.4046 70.54C55.1132 70.9473 55.8528 71.298 56.6165 71.589C56.8614 71.6689 57.1007 71.7645 57.3333 71.875C57.3756 72.1596 57.3897 72.4476 57.3753 72.735V73.599C57.3652 74.3525 57.6507 75.08 58.1702 75.6257C58.6898 76.1715 59.4025 76.4921 60.1556 76.519H60.2425C60.9992 76.5222 61.7261 76.2258 62.265 75.6946C62.8038 75.1634 63.1108 74.4406 63.1185 73.684C63.1435 73.058 63.1347 72.429 63.1737 71.784C63.7097 71.584 64.2346 71.354 64.7596 71.127C65.2016 70.934 65.6446 70.742 66.0726 70.543C66.3586 70.785 66.6245 71.056 66.8875 71.327C67.0555 71.499 67.2233 71.671 67.3973 71.836C67.6574 72.1128 67.9702 72.335 68.3172 72.4894C68.6643 72.6439 69.039 72.7275 69.4188 72.7354C69.7986 72.7433 70.1759 72.6753 70.5291 72.5355C70.8823 72.3956 71.204 72.1867 71.4754 71.921C71.7468 71.6552 71.9624 71.3379 72.1097 70.9877C72.257 70.6376 72.3332 70.2615 72.3333 69.8816C72.3334 69.5018 72.2573 69.1257 72.1102 68.7755C71.9631 68.4253 71.7477 68.1079 71.4764 67.842C71.2834 67.634 71.0763 67.434 70.8763 67.233C70.6173 66.978 70.3563 66.723 70.1483 66.533C70.3123 66.11 70.4945 65.693 70.6785 65.278C70.9404 64.7169 71.1594 64.1369 71.3343 63.543H71.5286C72.1567 63.5759 72.786 63.5703 73.4134 63.526C74.1664 63.4726 74.8694 63.1291 75.3743 62.5679C75.8792 62.0066 76.1467 61.2715 76.1204 60.517C76.0692 59.7705 75.7362 59.0713 75.1888 58.5611C74.6415 58.0509 73.921 57.7677 73.1727 57.769ZM66.0384 60.607C66.0433 61.3679 65.8968 62.1221 65.6077 62.826C65.3187 63.5298 64.8926 64.1692 64.3543 64.707C63.8128 65.2532 63.1682 65.6865 62.4578 65.9816C61.7475 66.2767 60.9858 66.4277 60.2166 66.426V66.426C59.4669 66.4264 58.7243 66.2776 58.0326 65.9883C57.3409 65.699 56.7136 65.275 56.1873 64.741C55.3797 63.9407 54.8274 62.919 54.5999 61.805C54.3725 60.691 54.4803 59.5345 54.9095 58.4816C55.3387 57.4288 56.07 56.5267 57.0116 55.8892C57.9531 55.2518 59.0626 54.9076 60.1995 54.9H60.2196C60.9898 54.8961 61.7528 55.0443 62.4657 55.336C63.1785 55.6277 63.8269 56.0572 64.3734 56.6C64.9022 57.1253 65.322 57.7504 65.6077 58.4388C65.8935 59.1273 66.0397 59.8656 66.0384 60.611V60.607Z" fill="#0067CD"/>
<path d="M42.5088 65.061C41.7741 64.2573 41.254 63.2812 40.9966 62.2231C40.7392 61.1651 40.7528 60.0592 41.0361 59.0077C41.3195 57.9563 41.8635 56.9933 42.6177 56.2079C43.3719 55.4224 44.3115 54.8398 45.3506 54.514C44.7079 53.3007 44.4721 51.9131 44.6777 50.5556C44.8833 49.1981 45.5196 47.9425 46.4927 46.974C46.5457 46.919 46.6327 46.835 46.7197 46.756C47.523 47.2228 48.4224 47.4996 49.3491 47.5652C50.2759 47.6308 51.2054 47.4835 52.0664 47.1345C52.9274 46.7855 53.6974 46.244 54.3169 45.5517C54.9364 44.8593 55.3891 44.0344 55.6406 43.14C55.7866 42.992 55.953 42.879 56.106 42.746C52.9851 39.4889 49.0941 37.0705 44.792 35.714C42.7834 34.9462 40.5532 35.0001 38.584 35.864C35.8089 36.976 32.8386 37.519 29.8496 37.461C26.8606 37.4029 23.9134 36.7449 21.1836 35.526C20.1726 35.138 19.0724 35.0451 18.0107 35.258C13.4965 36.2011 9.33958 38.3983 6.01758 41.597C4.17612 43.2384 2.69198 45.2408 1.65674 47.4798C0.621497 49.7189 0.0576786 52.1469 0 54.613C0.057 56.313 0.379598 64.195 2.0376 64.705C3.2896 65.09 26.2087 65.192 42.5127 65.072L42.5088 65.061Z" fill="#0067CD"/>
<path d="M255.872 37.191C256.026 37.1868 256.18 37.2155 256.323 37.2752C256.465 37.3348 256.594 37.4241 256.699 37.537C256.915 37.7646 257.032 38.0683 257.025 38.382V55.665C257.017 55.9682 256.894 56.2569 256.679 56.4715C256.465 56.6861 256.176 56.8102 255.873 56.818C255.715 56.8261 255.558 56.7993 255.412 56.7395C255.266 56.6797 255.135 56.5883 255.028 56.472C254.827 56.2521 254.717 55.964 254.72 55.666V51.095L255.374 50.788C255.358 51.5561 255.152 52.3083 254.774 52.977C254.35 53.7546 253.798 54.4556 253.142 55.051C252.425 55.7076 251.6 56.2342 250.702 56.607C249.736 57.0119 248.697 57.216 247.649 57.207C246.007 57.2286 244.396 56.7604 243.021 55.862C241.633 54.9459 240.519 53.672 239.795 52.175C238.997 50.5372 238.596 48.7346 238.624 46.913C238.586 45.0817 238.995 43.2687 239.815 41.631C240.553 40.1694 241.667 38.9301 243.041 38.04C244.175 37.3336 245.457 36.9001 246.786 36.7736C248.116 36.6471 249.457 36.831 250.703 37.311C251.632 37.6757 252.485 38.2098 253.219 38.886C253.922 39.5335 254.496 40.3089 254.909 41.171C255.312 42.003 255.522 42.9154 255.523 43.84L254.716 43.264V38.386C254.708 38.0755 254.818 37.7736 255.024 37.541C255.131 37.4236 255.262 37.3314 255.409 37.2708C255.555 37.2103 255.714 37.183 255.872 37.191V37.191ZM247.883 55.051C249.166 55.0731 250.425 54.7049 251.494 53.995C252.567 53.2627 253.423 52.2542 253.971 51.076C254.585 49.7738 254.893 48.3485 254.871 46.909C254.894 45.4999 254.586 44.1051 253.971 42.837C253.407 41.6796 252.554 40.6876 251.494 39.957C250.429 39.2361 249.168 38.8607 247.883 38.882C246.61 38.8647 245.361 39.2257 244.293 39.919C243.217 40.6222 242.353 41.6045 241.793 42.761C241.172 44.0541 240.864 45.4749 240.893 46.909C240.871 48.3467 241.174 49.7709 241.777 51.076C242.316 52.2599 243.174 53.2705 244.254 53.995C245.33 54.7031 246.595 55.0707 247.883 55.05V55.051Z" fill="#0067CD"/>
<path d="M278.994 28.395C279.147 28.39 279.299 28.4164 279.441 28.4726C279.583 28.5287 279.712 28.6135 279.82 28.7216C279.928 28.8297 280.013 28.9588 280.069 29.101C280.125 29.2431 280.151 29.3953 280.146 29.548V55.665C280.138 55.9681 280.014 56.2565 279.8 56.4709C279.586 56.6853 279.297 56.8091 278.994 56.817C278.836 56.8251 278.679 56.7982 278.533 56.7384C278.387 56.6786 278.256 56.5873 278.149 56.471C277.948 56.2507 277.838 55.9623 277.841 55.664V51.094L278.495 50.557C278.478 51.3403 278.281 52.1093 277.919 52.804C277.509 53.619 276.956 54.354 276.287 54.974C275.567 55.6498 274.735 56.1956 273.828 56.587C272.864 57.0023 271.824 57.2118 270.775 57.202C269.145 57.2201 267.548 56.7522 266.185 55.858C264.802 54.9474 263.683 53.689 262.94 52.209C262.157 50.5696 261.75 48.7758 261.75 46.959C261.75 45.1422 262.157 43.3484 262.94 41.709C263.673 40.2284 264.786 38.9694 266.166 38.061C267.525 37.1765 269.116 36.715 270.737 36.735C271.776 36.7279 272.807 36.9236 273.771 37.311C274.697 37.682 275.549 38.2154 276.287 38.886C277.002 39.5317 277.588 40.307 278.015 41.171C278.431 41.9992 278.649 42.9131 278.65 43.84L277.842 43.264V29.548C277.839 29.2497 277.949 28.9612 278.15 28.741C278.257 28.6249 278.388 28.5336 278.533 28.4738C278.679 28.414 278.837 28.3871 278.994 28.395V28.395ZM271.006 55.051C272.288 55.0728 273.547 54.7045 274.616 53.995C275.682 53.2714 276.537 52.2775 277.093 51.115C277.689 49.8126 277.997 48.3972 277.997 46.965C277.997 45.5328 277.689 44.1174 277.093 42.815C276.537 41.6528 275.682 40.6591 274.616 39.935C273.542 39.2457 272.292 38.8793 271.016 38.8793C269.74 38.8793 268.49 39.2457 267.416 39.935C266.339 40.6535 265.476 41.6481 264.916 42.815C264.299 44.1027 263.991 45.5164 264.016 46.944C263.992 48.3772 264.3 49.7965 264.916 51.091C265.471 52.2662 266.335 53.2686 267.416 53.991C268.478 54.698 269.729 55.0684 271.005 55.054L271.006 55.051Z" fill="#0067CD"/>
<path d="M295.009 37.037C296.466 36.9967 297.896 37.4351 299.081 38.285C300.263 39.2083 301.079 40.5224 301.381 41.992L300.844 42.146L301.075 41.454C301.461 40.6146 302.032 39.8732 302.745 39.285C303.539 38.5983 304.441 38.047 305.414 37.653C306.375 37.2508 307.406 37.0418 308.448 37.038C309.824 36.9717 311.187 37.3344 312.348 38.076C313.331 38.7644 314.081 39.7353 314.499 40.86C314.963 42.1197 315.191 43.4545 315.171 44.797V55.666C315.173 55.9677 315.055 56.258 314.844 56.473C314.736 56.5826 314.607 56.6696 314.466 56.729C314.324 56.7884 314.172 56.819 314.018 56.819C313.864 56.819 313.712 56.7884 313.57 56.729C313.428 56.6696 313.3 56.5826 313.192 56.473C313.087 56.3665 313.004 56.2404 312.949 56.1019C312.893 55.9634 312.864 55.8153 312.866 55.666V44.911C312.877 43.9281 312.708 42.9516 312.366 42.03C312.06 41.1965 311.512 40.4739 310.791 39.956C309.935 39.4048 308.928 39.1362 307.911 39.188C306.858 39.189 305.821 39.453 304.896 39.956C303.959 40.4478 303.155 41.1595 302.553 42.03C301.961 42.8735 301.646 43.8805 301.653 44.911V55.665C301.655 55.9667 301.537 56.2568 301.326 56.472C301.218 56.5815 301.09 56.6686 300.948 56.728C300.806 56.7873 300.654 56.8179 300.5 56.8179C300.347 56.8179 300.195 56.7873 300.053 56.728C299.911 56.6686 299.783 56.5815 299.675 56.472C299.57 56.3655 299.487 56.2395 299.431 56.1011C299.375 55.9626 299.347 55.8144 299.348 55.665V44.796C299.361 43.829 299.205 42.8671 298.887 41.954C298.605 41.1444 298.081 40.4406 297.387 39.938C296.556 39.3996 295.576 39.1375 294.587 39.189C293.555 39.194 292.539 39.4481 291.626 39.9296C290.713 40.4112 289.93 41.106 289.343 41.955C288.77 42.7912 288.468 43.7834 288.479 44.797V55.666C288.471 55.9691 288.347 56.2577 288.133 56.4722C287.919 56.6866 287.63 56.8104 287.327 56.818C287.169 56.8261 287.012 56.7993 286.866 56.7395C286.72 56.6797 286.589 56.5883 286.482 56.472C286.281 56.2517 286.171 55.9633 286.174 55.665V38.458C286.172 38.1566 286.289 37.8667 286.501 37.652C286.609 37.5425 286.737 37.4555 286.879 37.3961C287.021 37.3367 287.173 37.3061 287.326 37.3061C287.48 37.3061 287.632 37.3367 287.774 37.3961C287.916 37.4555 288.044 37.5425 288.152 37.652C288.257 37.7583 288.339 37.8841 288.396 38.0224C288.452 38.1608 288.48 38.3087 288.479 38.458V42.03L287.443 43.451C287.533 42.6413 287.788 41.8587 288.192 41.151C288.625 40.3687 289.19 39.6671 289.862 39.077C290.562 38.4564 291.361 37.9566 292.225 37.598C293.106 37.2261 294.053 37.0353 295.009 37.037Z" fill="#0067CD"/>
<path d="M322.279 34.272C321.845 34.3049 321.413 34.1748 321.069 33.907C320.93 33.7702 320.823 33.605 320.754 33.4228C320.685 33.2405 320.656 33.0454 320.669 32.851V32.467C320.657 32.2687 320.69 32.0701 320.766 31.8868C320.843 31.7035 320.961 31.5403 321.111 31.41C321.459 31.1499 321.888 31.0209 322.321 31.046C322.731 31.0204 323.136 31.1504 323.454 31.41C323.593 31.547 323.701 31.7124 323.77 31.8948C323.839 32.0772 323.868 32.2724 323.854 32.467V32.851C323.868 33.0454 323.839 33.2405 323.77 33.4228C323.701 33.605 323.593 33.7702 323.454 33.907C323.122 34.1718 322.703 34.3021 322.279 34.272ZM323.431 55.665C323.424 55.9681 323.3 56.2567 323.085 56.4712C322.871 56.6856 322.582 56.8094 322.279 56.817C322.125 56.8214 321.971 56.7929 321.829 56.7332C321.686 56.6735 321.558 56.5842 321.453 56.471C321.348 56.3646 321.265 56.2385 321.209 56.1001C321.153 55.9616 321.125 55.8134 321.126 55.664V37.993C321.124 37.6913 321.241 37.401 321.453 37.186C321.561 37.0765 321.689 36.9895 321.831 36.9301C321.973 36.8707 322.125 36.8401 322.279 36.8401C322.432 36.8401 322.584 36.8707 322.726 36.9301C322.868 36.9895 322.996 37.0765 323.104 37.186C323.316 37.4011 323.433 37.6913 323.431 37.993V55.665Z" fill="#0067CD"/>
<path d="M338.683 36.733C340.105 36.6626 341.515 37.017 342.735 37.751C343.738 38.4189 344.505 39.3871 344.925 40.5169C345.385 41.7511 345.614 43.0598 345.598 44.3769V55.669C345.59 55.9724 345.466 56.2613 345.252 56.4759C345.037 56.6905 344.748 56.8143 344.445 56.8219C344.287 56.83 344.13 56.8031 343.984 56.7433C343.838 56.6835 343.707 56.5922 343.601 56.476C343.399 56.2564 343.289 55.9681 343.293 55.67V44.488C343.304 43.5315 343.134 42.5815 342.793 41.688C342.471 40.8575 341.901 40.1465 341.161 39.652C340.268 39.103 339.231 38.8357 338.184 38.885C337.093 38.882 336.019 39.1453 335.053 39.652C334.104 40.1327 333.282 40.8302 332.653 41.688C332.051 42.497 331.728 43.4795 331.732 44.488V55.665C331.725 55.9683 331.601 56.2572 331.386 56.4718C331.172 56.6864 330.883 56.8104 330.58 56.818C330.422 56.8263 330.265 56.7996 330.118 56.7397C329.972 56.6799 329.841 56.5885 329.735 56.472C329.533 56.2523 329.423 55.964 329.427 55.6659V38.458C329.426 38.3087 329.454 38.1607 329.51 38.0224C329.566 37.8841 329.649 37.7582 329.754 37.652C329.862 37.5425 329.99 37.4557 330.132 37.3963C330.274 37.337 330.426 37.3065 330.579 37.3065C330.733 37.3065 330.885 37.337 331.027 37.3963C331.169 37.4557 331.297 37.5425 331.405 37.652C331.616 37.8667 331.734 38.1566 331.732 38.458V41.685L330.848 43.0669C330.906 42.2256 331.177 41.4129 331.635 40.7049C332.126 39.93 332.742 39.242 333.459 38.669C334.204 38.0665 335.041 37.5868 335.937 37.248C336.813 36.9099 337.744 36.7353 338.683 36.733Z" fill="#0067CD"/>
</svg>
