<svg xmlns="http://www.w3.org/2000/svg" width="345.586" height="76.523" viewBox="0 0 345.586 76.523">
    <defs>
        <style>
            .cls-1{fill:#fff}
        </style>
    </defs>
    <g id="Group_281">
        <path id="Union_1" d="M1589.758 659.046V677.3c0 1.617 0 1.617-1.667 1.617h-7.568c-1.871 0-1.884-.01-1.884-1.851q0-12.3-.016-24.6v-13.879c0-.441.066-.882.1-1.324l.276-.2 24.394 20.1v-18.447c0-1.536.07-1.61 1.6-1.61h8.1c1.2 0 1.417.211 1.417 1.406v39.429a2.075 2.075 0 0 1-.344 1.125zm78.091 19.943c-1.516-.021-3.036-.014-4.553-.014h-3.123c-1.44-.01-1.686-.413-1.05-1.741q9.211-19.266 18.464-38.509c.188-.393.635-.659.962-.986.325.332.767.6.956 1q9.18 19.221 18.334 38.449c.672 1.414.469 1.72-1.1 1.72h-2.439c-1.992 0-3.987-.01-5.978.022a1.324 1.324 0 0 1-1.42-.935q-4.2-9.553-8.428-19.093c-.095-.215-.211-.42-.434-.86-1.454 3.373-2.809 6.512-4.16 9.653-1.464 3.406-2.95 6.807-4.363 10.228A1.516 1.516 0 0 1 1667.9 679zm-43.782-5.723c-1.751-1.684-1.741-1.82.184-3.256 1.72-1.278 3.44-2.54 5.124-3.85a1.1 1.1 0 0 1 1.551-.1 1.081 1.081 0 0 1 .217.26 10.091 10.091 0 0 0 10.045 3.308 3.061 3.061 0 0 0 2.762-2.5 2.944 2.944 0 0 0-2.1-3.062c-1.926-.817-3.91-1.5-5.893-2.178a18.507 18.507 0 0 1-7.7-4.311 11.591 11.591 0 0 1-3.06-10.048 12.041 12.041 0 0 1 10.69-10.09 25.9 25.9 0 0 1 3.655-.274 18.735 18.735 0 0 1 8.944 2.147 23.332 23.332 0 0 1 3.217 2.347.994.994 0 0 1 .091 1.685c-1.548 1.614-3.1 3.237-4.617 4.889a1.081 1.081 0 0 1-1.783.1 8.518 8.518 0 0 0-7.224-2.028 2.642 2.642 0 0 0-.92 5.037c1.928.809 3.925 1.454 5.906 2.127a23.068 23.068 0 0 1 8.148 4.2 10.494 10.494 0 0 1 3.44 8.14 11.7 11.7 0 0 1-4.514 10.217 14.818 14.818 0 0 1-7.076 2.657c-1.24.172-2.505.2-3.759.3a21.341 21.341 0 0 1-15.328-5.717zm-63.586 5.663c-.91 0-1.251-.345-1.251-1.282q.023-19.614-.01-39.223c0-1.02.438-1.331 1.363-1.331h.044c1.768.021 3.538.014 5.3.014h3.007c1.251 0 1.465.217 1.465 1.472v38.801c0 1.474-.064 1.532-1.548 1.532h-2.432c-1.959 0-3.916-.012-5.876.019z" class="cls-1" transform="translate(-1465.844 -621.906)"/>
        <g id="Group_276">
            <path id="Path_346" d="M5460.81 643.3a17.012 17.012 0 1 1-17.009 17.133 17.017 17.017 0 0 1 17.009-17.133z" class="cls-1" transform="translate(-5430.354 -643.299)"/>
            <path id="Path_225" d="M5494.178 687.558c-.572-.011-1.154-.017-1.789-.04-.2-.573-.444-1.122-.688-1.675-.183-.415-.365-.831-.54-1.232.229-.269.482-.517.735-.765.21-.2.418-.41.616-.625a2.774 2.774 0 0 0 .032-3.923c-.027-.03-.06-.06-.09-.089a2.806 2.806 0 0 0-3.96-.014c-.479.441-.939.9-1.4 1.365-.473-.226-.957-.43-1.442-.632s-.928-.387-1.375-.6a.614.614 0 0 1-.12-.123 7.435 7.435 0 0 1-.026-.99c0-.287.01-.573 0-.86a2.866 2.866 0 0 0-5.731.074 12.183 12.183 0 0 0 .044 1.85.813.813 0 0 1-.15.067c-.9.329-1.836.716-2.882 1.216-.4-.43-.822-.841-1.245-1.251a2.843 2.843 0 0 0-4.017-.168c-.044.04-.086.082-.127.125a2.813 2.813 0 0 0-.019 3.977l.1.1c.152.156.308.307.465.457a3.87 3.87 0 0 1 .737.859c-.174.463-.368.917-.564 1.371s-.4.937-.582 1.413c-.078.208-.071.159-.058.13a14.043 14.043 0 0 0-1.451-.016h-.24a2.888 2.888 0 1 0-.253 5.771h.11a7.791 7.791 0 0 0 1.807-.065.818.818 0 0 1 .072.156c.43 1.113.807 2.006 1.2 2.829 0 .019.017.034.021.049-.483.453-.956.92-1.4 1.41a2.847 2.847 0 0 0 4.037 4.011c.474-.43.932-.885 1.405-1.391a15.54 15.54 0 0 0 2.212 1.049 6.04 6.04 0 0 1 .717.286 4.369 4.369 0 0 1 .042.86v.864a2.883 2.883 0 0 0 2.78 2.92h.087a2.864 2.864 0 0 0 2.876-2.835c.025-.626.016-1.255.055-1.9.536-.2 1.061-.43 1.586-.657.442-.193.885-.385 1.313-.584.286.242.552.513.815.784.168.172.336.344.51.509a2.855 2.855 0 1 0 4.079-3.994c-.193-.208-.4-.408-.6-.609-.259-.255-.52-.51-.728-.7.164-.423.346-.84.53-1.255a12.351 12.351 0 0 0 .656-1.735h.194a15.341 15.341 0 0 0 1.885-.017 2.915 2.915 0 0 0 2.707-3.009 2.95 2.95 0 0 0-2.948-2.748zm-7.134 2.838a5.743 5.743 0 0 1-1.684 4.1 5.809 5.809 0 0 1-4.138 1.719 5.653 5.653 0 0 1-4.029-1.685 5.754 5.754 0 0 1 4.012-9.841h.02a5.853 5.853 0 0 1 4.154 1.7 5.64 5.64 0 0 1 1.665 4.011z" class="cls-1" transform="translate(-5421.011 -629.788)"/>
            <path id="Path_347" d="M5476.917 697.747a6.475 6.475 0 0 1 2.842-10.547 6.407 6.407 0 0 1 1.142-7.54c.053-.055.14-.139.227-.218a6.089 6.089 0 0 0 8.921-3.616c.146-.148.312-.261.465-.394a26.853 26.853 0 0 0-11.314-7.032 8.181 8.181 0 0 0-6.208.15 22.317 22.317 0 0 1-17.4-.338 5.718 5.718 0 0 0-3.173-.268 24.52 24.52 0 0 0-11.993 6.339 18 18 0 0 0-6.018 13.016c.057 1.7.38 9.582 2.038 10.092 1.252.385 24.171.487 40.475.367z" class="cls-1" transform="translate(-5434.414 -632.685)"/>
        </g>
        <g id="Group_278" transform="translate(238.621 28.396)">
            <path id="Path_20" d="M1739.845 870.258a1.091 1.091 0 0 1 .827.346 1.189 1.189 0 0 1 .326.845v17.283a1.183 1.183 0 0 1-1.152 1.153 1.072 1.072 0 0 1-.845-.346 1.176 1.176 0 0 1-.308-.806v-4.571l.654-.307a4.637 4.637 0 0 1-.6 2.189 7.932 7.932 0 0 1-1.632 2.074 8.356 8.356 0 0 1-2.44 1.556 7.731 7.731 0 0 1-3.053.6 8.261 8.261 0 0 1-4.628-1.345 9.235 9.235 0 0 1-3.226-3.687 11.606 11.606 0 0 1-1.171-5.262 11.268 11.268 0 0 1 1.191-5.282 9.242 9.242 0 0 1 3.226-3.591 8.626 8.626 0 0 1 7.662-.729 8.06 8.06 0 0 1 2.516 1.575 7.528 7.528 0 0 1 1.69 2.285 6.129 6.129 0 0 1 .614 2.669l-.807-.576v-4.878a1.228 1.228 0 0 1 .308-.845 1.073 1.073 0 0 1 .848-.35zm-7.989 17.86a6.33 6.33 0 0 0 3.611-1.056 7.219 7.219 0 0 0 2.477-2.919 9.441 9.441 0 0 0 .9-4.167 8.993 8.993 0 0 0-.9-4.072 7.472 7.472 0 0 0-2.477-2.88 6.256 6.256 0 0 0-3.611-1.075 6.431 6.431 0 0 0-3.59 1.037 7.086 7.086 0 0 0-2.5 2.842 9.156 9.156 0 0 0-.9 4.148 9.588 9.588 0 0 0 .884 4.167 7.015 7.015 0 0 0 2.477 2.919 6.415 6.415 0 0 0 3.629 1.055z" class="cls-1" transform="translate(-1722.6 -861.462)"/>
            <path id="Path_21" d="M1765.245 860.641a1.116 1.116 0 0 1 1.152 1.153v26.117a1.183 1.183 0 0 1-1.152 1.152 1.072 1.072 0 0 1-.845-.346 1.177 1.177 0 0 1-.308-.807v-4.57l.654-.537a5.091 5.091 0 0 1-.576 2.247 7.632 7.632 0 0 1-1.632 2.17 8.538 8.538 0 0 1-2.459 1.613 7.537 7.537 0 0 1-3.053.615 8.2 8.2 0 0 1-4.59-1.344 9.437 9.437 0 0 1-3.245-3.649 12.18 12.18 0 0 1 0-10.5 9.314 9.314 0 0 1 3.226-3.648 8.194 8.194 0 0 1 4.571-1.326 7.992 7.992 0 0 1 3.034.576 8.376 8.376 0 0 1 2.516 1.575 7.629 7.629 0 0 1 1.728 2.285 5.966 5.966 0 0 1 .635 2.669l-.808-.576v-13.716a1.176 1.176 0 0 1 .308-.807 1.073 1.073 0 0 1 .844-.346zm-7.988 26.656a6.332 6.332 0 0 0 3.61-1.056 7.274 7.274 0 0 0 2.477-2.88 9.978 9.978 0 0 0 0-8.3 7.285 7.285 0 0 0-2.477-2.88 6.666 6.666 0 0 0-7.2 0 7.216 7.216 0 0 0-2.5 2.88 9.187 9.187 0 0 0-.9 4.129 9.3 9.3 0 0 0 .9 4.147 7.175 7.175 0 0 0 2.5 2.9 6.348 6.348 0 0 0 3.589 1.063z" class="cls-1" transform="translate(-1724.878 -860.641)"/>
            <path id="Path_22" d="M1783.666 870.134a6.669 6.669 0 0 1 4.072 1.248 6.317 6.317 0 0 1 2.3 3.707l-.537.154.231-.692a6.144 6.144 0 0 1 1.67-2.169 9.573 9.573 0 0 1 2.669-1.632 7.935 7.935 0 0 1 3.034-.615 6.651 6.651 0 0 1 3.9 1.038 5.917 5.917 0 0 1 2.151 2.784 10.9 10.9 0 0 1 .672 3.937v10.869a1.138 1.138 0 0 1-.327.807 1.159 1.159 0 0 1-1.652 0 1.137 1.137 0 0 1-.326-.807v-10.755a8.024 8.024 0 0 0-.5-2.881 4.431 4.431 0 0 0-1.575-2.074 4.863 4.863 0 0 0-2.88-.768 6.326 6.326 0 0 0-3.015.768 6.548 6.548 0 0 0-2.343 2.074 4.959 4.959 0 0 0-.9 2.881v10.754a1.141 1.141 0 0 1-.327.807 1.158 1.158 0 0 1-1.651 0 1.137 1.137 0 0 1-.327-.807v-10.869a8.275 8.275 0 0 0-.461-2.842 4.189 4.189 0 0 0-1.5-2.016 4.7 4.7 0 0 0-2.8-.749 6.413 6.413 0 0 0-5.244 2.766 4.936 4.936 0 0 0-.864 2.842v10.869a1.182 1.182 0 0 1-1.152 1.152 1.072 1.072 0 0 1-.845-.346 1.177 1.177 0 0 1-.308-.807v-17.207a1.137 1.137 0 0 1 .327-.806 1.158 1.158 0 0 1 1.651 0 1.135 1.135 0 0 1 .327.806v3.572l-1.036 1.421a5.99 5.99 0 0 1 .749-2.3 7.769 7.769 0 0 1 1.67-2.074 8.439 8.439 0 0 1 2.363-1.479 7.125 7.125 0 0 1 2.784-.561z" class="cls-1" transform="translate(-1727.284 -861.492)"/>
            <path id="Path_23" d="M1814.333 866.779a1.754 1.754 0 0 1-1.21-.365 1.352 1.352 0 0 1-.4-1.056v-.384a1.291 1.291 0 0 1 .442-1.057 1.843 1.843 0 0 1 1.21-.364 1.632 1.632 0 0 1 1.133.364 1.354 1.354 0 0 1 .4 1.057v.384a1.352 1.352 0 0 1-.4 1.056 1.692 1.692 0 0 1-1.175.365zm1.152 21.393a1.182 1.182 0 0 1-1.152 1.152 1.085 1.085 0 0 1-.826-.346 1.136 1.136 0 0 1-.327-.807V870.5a1.138 1.138 0 0 1 .327-.807 1.158 1.158 0 0 1 1.651 0 1.139 1.139 0 0 1 .327.807z" class="cls-1" transform="translate(-1730.681 -860.902)"/>
            <path id="Path_24" d="M1831.6 869.8a7.171 7.171 0 0 1 4.052 1.018 5.715 5.715 0 0 1 2.19 2.766 10.678 10.678 0 0 1 .673 3.86v11.292a1.183 1.183 0 0 1-1.153 1.153 1.071 1.071 0 0 1-.844-.346 1.17 1.17 0 0 1-.308-.806v-11.182a7.6 7.6 0 0 0-.5-2.8 4.327 4.327 0 0 0-1.632-2.036 5.215 5.215 0 0 0-2.977-.767 6.7 6.7 0 0 0-3.131.767 6.771 6.771 0 0 0-2.4 2.036 4.659 4.659 0 0 0-.921 2.8v11.177a1.182 1.182 0 0 1-1.152 1.153 1.069 1.069 0 0 1-.845-.346 1.171 1.171 0 0 1-.308-.806v-17.208a1.134 1.134 0 0 1 .327-.806 1.159 1.159 0 0 1 1.651 0 1.137 1.137 0 0 1 .327.806v3.227l-.884 1.382a4.976 4.976 0 0 1 .787-2.362 8.288 8.288 0 0 1 1.824-2.036 9.007 9.007 0 0 1 2.478-1.421 7.682 7.682 0 0 1 2.746-.515z" class="cls-1" transform="translate(-1731.544 -861.462)"/>
        </g>
    </g>
</svg>
