<svg xmlns="http://www.w3.org/2000/svg" width="232.357" height="76.523" viewBox="0 0 232.357 76.523">
    <defs>
        <style>
            .cls-1{fill:#fff}
        </style>
    </defs>
    <g id="Group_293">
        <path id="Union_1" d="M1589.758 659.046V677.3c0 1.617 0 1.617-1.667 1.617h-7.568c-1.871 0-1.884-.01-1.884-1.851q0-12.3-.016-24.6v-13.879c0-.441.066-.882.1-1.324l.276-.2 24.394 20.1v-18.447c0-1.536.07-1.61 1.6-1.61h8.1c1.2 0 1.417.211 1.417 1.406v39.429a2.075 2.075 0 0 1-.344 1.125zm78.091 19.943c-1.516-.021-3.036-.014-4.553-.014h-3.123c-1.44-.01-1.686-.413-1.05-1.741q9.211-19.266 18.464-38.509c.188-.393.635-.659.962-.986.325.332.767.6.956 1q9.18 19.221 18.334 38.449c.672 1.414.469 1.72-1.1 1.72h-2.439c-1.992 0-3.987-.01-5.978.022a1.324 1.324 0 0 1-1.42-.935q-4.2-9.553-8.428-19.093c-.095-.215-.211-.42-.434-.86-1.454 3.373-2.809 6.512-4.16 9.653-1.464 3.406-2.95 6.807-4.363 10.228A1.516 1.516 0 0 1 1667.9 679zm-43.782-5.723c-1.751-1.684-1.741-1.82.184-3.256 1.72-1.278 3.44-2.54 5.124-3.85a1.1 1.1 0 0 1 1.551-.1 1.081 1.081 0 0 1 .217.26 10.091 10.091 0 0 0 10.045 3.308 3.061 3.061 0 0 0 2.762-2.5 2.944 2.944 0 0 0-2.1-3.062c-1.926-.817-3.91-1.5-5.893-2.178a18.507 18.507 0 0 1-7.7-4.311 11.591 11.591 0 0 1-3.06-10.048 12.041 12.041 0 0 1 10.69-10.09 25.9 25.9 0 0 1 3.655-.274 18.735 18.735 0 0 1 8.944 2.147 23.332 23.332 0 0 1 3.217 2.347.994.994 0 0 1 .091 1.685c-1.548 1.614-3.1 3.237-4.617 4.889a1.081 1.081 0 0 1-1.783.1 8.518 8.518 0 0 0-7.224-2.028 2.642 2.642 0 0 0-.92 5.037c1.928.809 3.925 1.454 5.906 2.127a23.068 23.068 0 0 1 8.148 4.2 10.494 10.494 0 0 1 3.44 8.14 11.7 11.7 0 0 1-4.514 10.217 14.818 14.818 0 0 1-7.076 2.657c-1.24.172-2.505.2-3.759.3a21.341 21.341 0 0 1-15.328-5.717zm-63.586 5.663c-.91 0-1.251-.345-1.251-1.282q.023-19.614-.01-39.223c0-1.02.438-1.331 1.363-1.331h.044c1.768.021 3.538.014 5.3.014h3.007c1.251 0 1.465.217 1.465 1.472v38.801c0 1.474-.064 1.532-1.548 1.532h-2.432c-1.959 0-3.916-.012-5.876.019z" class="cls-1" transform="translate(-1465.844 -621.906)"/>
        <g id="Group_276">
            <path id="Path_346" d="M5460.81 643.3a17.012 17.012 0 1 1-17.009 17.133 17.017 17.017 0 0 1 17.009-17.133z" class="cls-1" transform="translate(-5430.354 -643.299)"/>
            <path id="Path_225" d="M5494.178 687.558c-.572-.011-1.154-.017-1.789-.04-.2-.573-.444-1.122-.688-1.675-.183-.415-.365-.831-.54-1.232.229-.269.482-.517.735-.765.21-.2.418-.41.616-.625a2.774 2.774 0 0 0 .032-3.923c-.027-.03-.06-.06-.09-.089a2.806 2.806 0 0 0-3.96-.014c-.479.441-.939.9-1.4 1.365-.473-.226-.957-.43-1.442-.632s-.928-.387-1.375-.6a.614.614 0 0 1-.12-.123 7.435 7.435 0 0 1-.026-.99c0-.287.01-.573 0-.86a2.866 2.866 0 0 0-5.731.074 12.183 12.183 0 0 0 .044 1.85.813.813 0 0 1-.15.067c-.9.329-1.836.716-2.882 1.216-.4-.43-.822-.841-1.245-1.251a2.843 2.843 0 0 0-4.017-.168c-.044.04-.086.082-.127.125a2.813 2.813 0 0 0-.019 3.977l.1.1c.152.156.308.307.465.457a3.87 3.87 0 0 1 .737.859c-.174.463-.368.917-.564 1.371s-.4.937-.582 1.413c-.078.208-.071.159-.058.13a14.043 14.043 0 0 0-1.451-.016h-.24a2.888 2.888 0 1 0-.253 5.771h.11a7.791 7.791 0 0 0 1.807-.065.818.818 0 0 1 .072.156c.43 1.113.807 2.006 1.2 2.829 0 .019.017.034.021.049-.483.453-.956.92-1.4 1.41a2.847 2.847 0 0 0 4.037 4.011c.474-.43.932-.885 1.405-1.391a15.54 15.54 0 0 0 2.212 1.049 6.04 6.04 0 0 1 .717.286 4.369 4.369 0 0 1 .042.86v.864a2.883 2.883 0 0 0 2.78 2.92h.087a2.864 2.864 0 0 0 2.876-2.835c.025-.626.016-1.255.055-1.9.536-.2 1.061-.43 1.586-.657.442-.193.885-.385 1.313-.584.286.242.552.513.815.784.168.172.336.344.51.509a2.855 2.855 0 1 0 4.079-3.994c-.193-.208-.4-.408-.6-.609-.259-.255-.52-.51-.728-.7.164-.423.346-.84.53-1.255a12.351 12.351 0 0 0 .656-1.735h.194a15.341 15.341 0 0 0 1.885-.017 2.915 2.915 0 0 0 2.707-3.009 2.95 2.95 0 0 0-2.948-2.748zm-7.134 2.838a5.743 5.743 0 0 1-1.684 4.1 5.809 5.809 0 0 1-4.138 1.719 5.653 5.653 0 0 1-4.029-1.685 5.754 5.754 0 0 1 4.012-9.841h.02a5.853 5.853 0 0 1 4.154 1.7 5.64 5.64 0 0 1 1.665 4.011z" class="cls-1" transform="translate(-5421.011 -629.788)"/>
            <path id="Path_347" d="M5476.917 697.747a6.475 6.475 0 0 1 2.842-10.547 6.407 6.407 0 0 1 1.142-7.54c.053-.055.14-.139.227-.218a6.089 6.089 0 0 0 8.921-3.616c.146-.148.312-.261.465-.394a26.853 26.853 0 0 0-11.314-7.032 8.181 8.181 0 0 0-6.208.15 22.317 22.317 0 0 1-17.4-.338 5.718 5.718 0 0 0-3.173-.268 24.52 24.52 0 0 0-11.993 6.339 18 18 0 0 0-6.018 13.016c.057 1.7.38 9.582 2.038 10.092 1.252.385 24.171.487 40.475.367z" class="cls-1" transform="translate(-5434.414 -632.685)"/>
        </g>
    </g>
</svg>
